<svg xmlns="http://www.w3.org/2000/svg" width="297.793" height="297.793" viewBox="0 0 297.793 297.793">
    <defs>
        <clipPath id="clip-path">
            <circle id="Ellipse_299" cx="109" cy="109" r="109" fill="#fff" stroke="#707070" transform="translate(684.937 673.937)"/>
        </clipPath>
        <style>
            .cls-3{fill:#fff}
        </style>
    </defs>
    <g id="Mask_Group_99" clip-path="url(#clip-path)" transform="rotate(-60 -77.678 1024.538)">
        <g id="Group_461" transform="translate(600.874 652.296)">
            <path id="Path_2742" d="M131.675 653.528a8.856 8.856 0 0 1-.486-.933 4.984 4.984 0 0 0-1.611-1.836 1.6 1.6 0 0 0-1.174-.292 3.831 3.831 0 0 0 1.64 3.317 3.05 3.05 0 0 1 1.144 2.777c-.137 1.679-.277 3.359-.432 5.036-.076.813-.162 1.62-.275 2.426a6.151 6.151 0 0 1-.3 1.355 6.071 6.071 0 0 0-.4 1.864 14.959 14.959 0 0 1-1.674 5.286c-.282.638-.707 1.21-1 1.839a3.431 3.431 0 0 1-2.283 2.026 4.35 4.35 0 0 1-2.465-1.1c-.174.69.334 1.034.687 1.451a1.625 1.625 0 0 1-1.829-.005 3.045 3.045 0 0 0-1.134-.447c-.692-.135-1.4-.179-2.1-.28a6.33 6.33 0 0 1-1.552-.312c-1.127-.5-2.229-1.07-3.315-1.665a7.7 7.7 0 0 1-2.07-1.63 15.9 15.9 0 0 1-4.031-7.866 5.456 5.456 0 0 1 .155-3.422 3.3 3.3 0 0 0 .206-.852c.594-3.5 2.74-6.005 5.37-8.2a3.358 3.358 0 0 1 .6-.371c1.25-.66 2.475-1.363 3.788-1.905a10.235 10.235 0 0 1 6.926-.417 9.6 9.6 0 0 1 1.358.4 4.477 4.477 0 0 0 2.593.275c.083-.086.174-.162.25-.253.415-.51.437-.818.13-1.237a4 4 0 0 0-1.36-1.1 26 26 0 0 0-4.537-1.981 7.708 7.708 0 0 0-5.387-.287 17.567 17.567 0 0 0-7.137 2.951c-.471.351-.958.687-1.4 1.063a16.475 16.475 0 0 0-4.665 5.659 59.139 59.139 0 0 0-2.549 6.342 14.48 14.48 0 0 0-.636 6.236 13.353 13.353 0 0 0 1.075 3.688 8.778 8.778 0 0 0 .815 1.355c.422.629 1.166.982 1.485 1.7a.723.723 0 0 0 .241.255 30.5 30.5 0 0 1 2.927 2.524 9.276 9.276 0 0 1 1.264 1.218 2.854 2.854 0 0 0 1.613 1.007c.732.211 1.439.518 2.163.749a12.34 12.34 0 0 0 2.207.621c1.64.192 3.288.3 4.94.376a7.287 7.287 0 0 0 1.925-.2 13.257 13.257 0 0 0 4.547-1.893 13.4 13.4 0 0 1 1.684-.962 2.955 2.955 0 0 0 1.026-.921 21.007 21.007 0 0 0 2.183-3.992 5.628 5.628 0 0 0 .417-1.689 26.415 26.415 0 0 1 .918-4.986 9.428 9.428 0 0 0 .476-3.283c-.02-1.873-.01-3.744.039-5.615a7.008 7.008 0 0 0-.992-3.855" class="cls-3" transform="translate(129.066 -433.662)"/>
            <path id="Path_2743" d="M133.032 640.772a11.71 11.71 0 0 0 3.4 6.03c.486.43.938.889 1.4 1.343a5.628 5.628 0 0 0 1.918 1.24 15.455 15.455 0 0 0 8.493 1.13 6.868 6.868 0 0 1 2.462-.059 8.149 8.149 0 0 0 3.327-.182c.869-.179 1.724-.412 2.58-.638a6.007 6.007 0 0 0 2.885-1.63c.447-.467.906-.926 1.385-1.363a5.693 5.693 0 0 0 1.694-3.206 8.18 8.18 0 0 1 .253-1.2 9.017 9.017 0 0 0 .5-3.624c-.145-2.1-.29-4.193-.447-6.288a5.151 5.151 0 0 0-.142-.685 25.773 25.773 0 0 0-2.107-5.929 6.927 6.927 0 0 0-3.523-3.538c-1.029-.444-2.084-.845-3.069-1.368a7.438 7.438 0 0 0-3.619-.572 16.5 16.5 0 0 0-2.809.322c-1.218.2-2.448.4-3.644.71a5.639 5.639 0 0 0-1.915.874 25.153 25.153 0 0 0-5.3 5.129 11.2 11.2 0 0 0-2.215 5.274 2.416 2.416 0 0 1-.528 1.277 7.089 7.089 0 0 0-1.343 2.649 3.6 3.6 0 0 0-.167 1.372 20.088 20.088 0 0 0 .525 2.932m1.984-6.023c.673-1.038 1.191-2.156 1.79-3.226a7.256 7.256 0 0 1 1.129-1.554q1.782-1.83 3.656-3.579c.768-.715 1.616-1.358 2.431-2.028a1.628 1.628 0 0 1 .457-.263 18.7 18.7 0 0 1 7.233-1.5 2.929 2.929 0 0 1 2.558 1.294 7.747 7.747 0 0 0 .933 1.053 4.089 4.089 0 0 1 1.142 2.868 7.26 7.26 0 0 1-.039 1.223 2.555 2.555 0 0 0 .277 1.52 3.128 3.128 0 0 1 .324 1.166 16.7 16.7 0 0 1-.577 5.728c-.268.9-.565 1.788-.884 2.666a9.818 9.818 0 0 1-2.421 3.837 8.033 8.033 0 0 1-3.933 2.237 15.318 15.318 0 0 1-3.7.29c-.533 0-1.063.015-1.6 0a10.77 10.77 0 0 1-7.454-3.56 6.814 6.814 0 0 1-1.647-3.265 17.81 17.81 0 0 1-.4-2.419 3.9 3.9 0 0 1 .719-2.49" class="cls-3" transform="translate(175.44 -469.456)"/>
            <path id="Path_2744" d="M103.108 579.835a5.292 5.292 0 0 0-.881 1.3 11.929 11.929 0 0 0-.773 2.328 25.8 25.8 0 0 1-.7 3.074 1.738 1.738 0 0 0 .059 1.2 63.733 63.733 0 0 1 1.824 6.4 20.777 20.777 0 0 0 1.068 3.15 7.587 7.587 0 0 0 2.9 3.673 12.187 12.187 0 0 1 .943.791 10.56 10.56 0 0 0 1.446 1c1.247.663 2.521 1.286 3.8 1.893a12.444 12.444 0 0 0 3.774.908 9.081 9.081 0 0 1 3.337.091 3.744 3.744 0 0 0 2.409-.4 16.416 16.416 0 0 0 4.027-3.13 4.244 4.244 0 0 0 .921-1.677c.366-1.235.707-2.477 1.183-3.673a22.73 22.73 0 0 0 1.134-4.228 7.968 7.968 0 0 0 .049-2.622c-.162-1.038-.376-2.072-.555-3.106a8.914 8.914 0 0 0-1.836-4.127 4.348 4.348 0 0 1-.906-1.689 7.308 7.308 0 0 0-1.274-2.49 16.072 16.072 0 0 0-4.532-3.869 2.053 2.053 0 0 0-.842-.26c-1.169-.15-2.34-.275-3.511-.408-1.6-.2-2.951.913-4.52.8a1.647 1.647 0 0 0-.673.2c-1.3.557-2.593 1.12-3.879 1.692a4.11 4.11 0 0 0-.771.425 18.034 18.034 0 0 0-3.219 2.742m2.234 2.733c.626-.322 1.228-.695 1.844-1.039a6.089 6.089 0 0 1 2.136-.81 9.718 9.718 0 0 0 1.208-.272 10.308 10.308 0 0 1 3.378-.442c2.573-.331 4.284.95 5.794 2.612.631.69 1.245 1.409 1.807 2.153a7.07 7.07 0 0 1 .867 1.522 11.522 11.522 0 0 1 .955 3.894 2.627 2.627 0 0 0 .059.7 8.74 8.74 0 0 1-.125 4.331 7.284 7.284 0 0 1-1.512 3.5c-.533.619-.965 1.323-1.478 1.964a6.485 6.485 0 0 1-3.1 2.222 4.358 4.358 0 0 1-3.43-.287 50.569 50.569 0 0 1-4.829-2.553 10.494 10.494 0 0 1-3.636-3.754 18.313 18.313 0 0 1-1.7-4.579c-.221-.908-.317-1.846-.565-2.747a6.974 6.974 0 0 1 .12-3.621 4.042 4.042 0 0 1 2.2-2.794" class="cls-3" transform="translate(129.128 -536.808)"/>
            <path id="Path_2745" d="M170.188 643.294a20.793 20.793 0 0 0 4-4.174 9.4 9.4 0 0 0 1.989-4.439 7.709 7.709 0 0 0 .118-3.818c-.086-.339-.093-.7-.157-1.039-.155-.864-.3-1.726-.5-2.58a3.689 3.689 0 0 0-.5-1.112c-.452-.683-.938-1.351-1.456-1.986a6.082 6.082 0 0 0-3.42-2.357 7.443 7.443 0 0 1-1.854-.584 15.652 15.652 0 0 0-2.517-.832 13.785 13.785 0 0 0-5.1-.142c-.985.646-2.156.925-3.14 1.539a3.041 3.041 0 0 0-.935 1.25 20.884 20.884 0 0 1-1.716 2.662c-1.981 2.816-2.875 5.871-1.876 9.288.1.336.228.665.346.994.236.658.474 1.316.7 1.925-.093.169-.118.3-.2.363a.79.79 0 0 0-.3.928 8.189 8.189 0 0 0 1.23 2.512 10.664 10.664 0 0 0 5.244 3.739 7.156 7.156 0 0 0 3.656.349 21.62 21.62 0 0 0 5.041-1.65 5.5 5.5 0 0 0 1.348-.837m-2.728-4.606a8.066 8.066 0 0 1-3.209 2.681 1.768 1.768 0 0 1-.83.285c-1.382-.169-2.838.079-4.125-.732a10.977 10.977 0 0 1-2.156-1.527 3.579 3.579 0 0 0-1.336-.832 4.41 4.41 0 0 1-.636-.361 5.282 5.282 0 0 0 .255-1.029 7.544 7.544 0 0 0-.13-1.039 5.8 5.8 0 0 1 .467-2.391c.169-.5.437-.967.56-1.473a15.99 15.99 0 0 1 3.03-5.5 2.645 2.645 0 0 1 .638-.6 1.394 1.394 0 0 1 1.94-.047c.381.28.778.538 1.139.84 1.176.975 2.332 1.967 3.508 2.946a4.073 4.073 0 0 1 1.434 2.345 17.5 17.5 0 0 1 .329 4.012 4.225 4.225 0 0 1-.879 2.423" class="cls-3" transform="translate(204.872 -469.708)"/>
            <path id="Path_2746" d="M8.128 578.6a7.253 7.253 0 0 0 .307 1.186 10.928 10.928 0 0 1 .879 2.841 1.269 1.269 0 0 0 .3.624 3.4 3.4 0 0 1 .562 1.272 2.241 2.241 0 0 0 .393.773c1.235 1.65 2.5 3.27 4.559 4a4.12 4.12 0 0 0 3.221.543c.879-.115 1.763-.189 2.644-.236a4.754 4.754 0 0 0 1.9-.366 17.116 17.116 0 0 0 5.367-1.031c.579-.118 1.147-.265 1.733-.341a5.264 5.264 0 0 0 3.729-1.753 1.9 1.9 0 0 1 1.178-.729 3.946 3.946 0 0 0 2.939-2.541 11.89 11.89 0 0 0 1.021-3.884 24.086 24.086 0 0 1 .25-3.14 2.9 2.9 0 0 0-.039-.869c-.066-.638-.152-1.277-.223-1.913a9.851 9.851 0 0 0-3.167-6.469 19.743 19.743 0 0 0-7.962-4.407 8.135 8.135 0 0 0-2.453-.326c-.766.012-1.537-.029-2.3.01a9.93 9.93 0 0 0-5.966 1.85c-.508.405-1.068.729-1.584 1.13a1.377 1.377 0 0 1-1.134.351 1.915 1.915 0 0 0-1.331.381 12.512 12.512 0 0 0-2.438 2.023 10.637 10.637 0 0 0-3.079 6.354 3.339 3.339 0 0 0 .027.871q.32 1.9.67 3.793m6.005-3.68a7.2 7.2 0 0 1 2.725-4.395c.638-.513 1.262-1.053 1.859-1.615a7.932 7.932 0 0 1 2.909-1.621 5.365 5.365 0 0 1 1.4-.177 13.317 13.317 0 0 0 1.94-.13 5.717 5.717 0 0 1 2.782.223 12.287 12.287 0 0 1 4.645 2.44 3.242 3.242 0 0 0 .41.329 6.5 6.5 0 0 1 2.583 3.246 17.654 17.654 0 0 1 1.309 5.426 4.815 4.815 0 0 1-.552 2.539 1.44 1.44 0 0 1-.42.557 15.018 15.018 0 0 1-1.908 1.255c-.263.135-.675-.012-1.024-.032-.034.083-.128.2-.106.282a1.761 1.761 0 0 1-.926 2.08c-1.4.864-2.833 1.682-4.248 2.519a26.529 26.529 0 0 1-5.23.813c-.16 0-.322.137-.484.213a10.046 10.046 0 0 1-3-1 3.1 3.1 0 0 1-.994-.719 12.9 12.9 0 0 1-3.641-6.307 15.675 15.675 0 0 1-.027-5.927" class="cls-3" transform="translate(-6.573 -554.462)"/>
            <path id="Path_2747" d="M68.106 572.625c-.368.462-.7.945-1.07 1.4a4.434 4.434 0 0 0-.864 1.891 16.188 16.188 0 0 1-1.387 4.331 2.207 2.207 0 0 0-.206 1.53c.216 1.147.417 2.3.651 3.435a2.22 2.22 0 0 0 .358.8 30.853 30.853 0 0 1 2.075 4.257 22.709 22.709 0 0 0 1.8 3 8.66 8.66 0 0 0 3.224 2.676 3.646 3.646 0 0 0 2.04.479c.233.24.466.476.7.714a3.178 3.178 0 0 0 .663.565 14.141 14.141 0 0 0 6.671 1.515 20.405 20.405 0 0 0 4.719-.69 6.626 6.626 0 0 0 4.1-3.133c.29-.508.543-1.041.864-1.527a10.707 10.707 0 0 0 1.49-3.543 16.35 16.35 0 0 0 .425-5.041 20.213 20.213 0 0 0-.481-3.113 25.156 25.156 0 0 0-.565-2.563 40.141 40.141 0 0 0-3.226-7.2 2.943 2.943 0 0 0-.629-.84c-1.716-1.34-3.43-2.686-5.721-2.981a16.1 16.1 0 0 0-2.455-.13 21.651 21.651 0 0 0-2.986.192 2.422 2.422 0 0 1-.354.012 22.038 22.038 0 0 0-2.647.2c-2.782.513-5.345 1.481-7.186 3.764m1.5 4.13a2.575 2.575 0 0 1 1.21-.685 6.894 6.894 0 0 1 .857-.211 44.252 44.252 0 0 0 4.66-1.012 13.269 13.269 0 0 1 3.523-.172 7.848 7.848 0 0 1 2.821.987 7.621 7.621 0 0 1 4.137 4.554 8.726 8.726 0 0 1 1.645 3.592c.039.248.331.462.506.693a5.014 5.014 0 0 1 .668 2.858c-.025.582-.012 1.166 0 1.75a8.012 8.012 0 0 1-3.062 6.423 8.113 8.113 0 0 1-2.558 1.534 5.4 5.4 0 0 1-3.125.285 4.605 4.605 0 0 0-1.048-.157 21.927 21.927 0 0 1-3.683-.43l-1.407-.7c-.194-.2-.356-.525-.594-.594a5.7 5.7 0 0 1-2.413-1.706c-.567-.6-1.127-1.2-1.674-1.807a1.958 1.958 0 0 1-.5-.709c-.324-1.311-1.237-2.391-1.471-3.737a1.7 1.7 0 0 0-.238-.658 6.924 6.924 0 0 1-.84-2.993 7.742 7.742 0 0 1 2.59-7.1" class="cls-3" transform="translate(76.536 -544.802)"/>
            <path id="Path_2748" d="M28.588 583.853a5.1 5.1 0 0 0 1.264 3.209 9.412 9.412 0 0 0 2.18 2.278c.732.491 1.382 1.1 2.08 1.64a9.339 9.339 0 0 0 2.637 1.409 13.177 13.177 0 0 0 3.479.609 12.659 12.659 0 0 0 5.775-.42c.219-.083.466-.093.69-.162a12.535 12.535 0 0 0 4.333-1.937 4.894 4.894 0 0 1 .9-.552 5.44 5.44 0 0 0 2.17-2.018c.285-.444.609-.867.894-1.311a8.781 8.781 0 0 0 1.451-3.548 13.751 13.751 0 0 1 .349-1.719 12.67 12.67 0 0 0-.916-8.053 11.109 11.109 0 0 0-4.893-5.384 10.681 10.681 0 0 0-5.3-1.829 6.02 6.02 0 0 1-1.395-.246 11.417 11.417 0 0 0-4.049-.38 14.97 14.97 0 0 0-4.39.4c-2.821.633-3.791 1.267-5.316 3.68a7.245 7.245 0 0 0-1.178 2.335 15.969 15.969 0 0 1-.714 2.347 24.286 24.286 0 0 0-.786 4.289 1.551 1.551 0 0 0 .032.349 21.5 21.5 0 0 0 .7 5.018m5.733-4.36c.12-.567.248-1.142.356-1.714a9.3 9.3 0 0 1 2.912-4.906 3.131 3.131 0 0 1 1.341-.825c.341-.1.673-.209 1.019-.3a34.286 34.286 0 0 1 5.075-.692 8.385 8.385 0 0 1 4.888 1.3 6.575 6.575 0 0 1 1.677 1.537 12.993 12.993 0 0 1 3.177 5.986 8.383 8.383 0 0 1-1.942 7.361 4.543 4.543 0 0 1-.94.788c-.724.5-1.485.96-2.2 1.466a5.667 5.667 0 0 1-1.807.695c-1.036.3-1.031.307-1.63 1.468a4.638 4.638 0 0 1-2.4-.12 15.358 15.358 0 0 0-4.139-.881 4.131 4.131 0 0 1-1.807-.678.882.882 0 0 0-.265-1.085c-.258-.228-.543-.432-.815-.643-.309-.253-.638-.489-.935-.756a2.319 2.319 0 0 0-1.193-.653v-.349a2.533 2.533 0 0 0-.7-1.412 25.636 25.636 0 0 1 .331-5.586" class="cls-3" transform="translate(23.171 -549.262)"/>
            <path id="Path_2749" d="M184.879 604.836a12.446 12.446 0 0 0-3.479-6.575 12.862 12.862 0 0 0-3.241-2.111 5.867 5.867 0 0 0-4.247-.629 11.8 11.8 0 0 0-3.349 1.1 13.965 13.965 0 0 1-4.955 1.812 4.693 4.693 0 0 0-2.551 1.5.249.249 0 0 0-.086.15 1.751 1.751 0 0 0 0 .481c.01.037.223.079.309.039a9.9 9.9 0 0 1 2.33-.818 29.053 29.053 0 0 0 4.685-.977 18.957 18.957 0 0 1 3.673-.58 2.436 2.436 0 0 1 2 .516 7.282 7.282 0 0 1 1.932 2.7 5.119 5.119 0 0 1 .273 3.764 13.485 13.485 0 0 0-.415 1.7c-.285 1.257-.565 2.512-.854 3.766a3.11 3.11 0 0 1-1.7 2.133c-.474.243-.945.481-1.412.739a8.475 8.475 0 0 1-4.969.994 7.334 7.334 0 0 1-4.481-1.893 15.044 15.044 0 0 1-3.467-4.4 9.085 9.085 0 0 1-.692-2.516 1.58 1.58 0 0 1 .157-.847c.26-.52.582-1.009.886-1.512.12-.2.268-.381.393-.577a.47.47 0 0 0-.214-.6.579.579 0 0 0-.484.039c-.295.285-.481.692-.8.923a8.326 8.326 0 0 0-2.175 2.733c-.918 1.51-.773 3.143-.695 4.778a1.3 1.3 0 0 0 .177.494q.593 1.179 1.206 2.342a10.6 10.6 0 0 0 2.907 3.5 15.7 15.7 0 0 0 3.815 2.222 8.653 8.653 0 0 0 1.868.535c1.1.174 2.224.258 3.049.351a15.476 15.476 0 0 0 2.416-.128c1.846-.415 3.678-.9 5.495-1.407a13.51 13.51 0 0 0 5.566-3.646 3.076 3.076 0 0 0 .422-.565 14.715 14.715 0 0 0 1.6-3.882 3.527 3.527 0 0 0-.106-2.242 19.053 19.053 0 0 1-.788-3.408" class="cls-3" transform="translate(211.379 -505.646)"/>
            <path id="Path_2750" d="M53.4 651.134a6.377 6.377 0 0 0-2.61-3.84 4.2 4.2 0 0 1-1.743-1.706 1.158 1.158 0 0 0-.668-.53c-1.365-.381-2.615-1.093-4.019-1.338-.815-.145-1.625-.312-2.445-.41a11.131 11.131 0 0 0-5.055.587c-.835.295-1.652.633-2.458.994a11.33 11.33 0 0 0-1.711.916 22.3 22.3 0 0 0-3.516 3.44.617.617 0 0 0-.1.142 15.831 15.831 0 0 0-1.841 5.092 2.406 2.406 0 0 0 .064 1.039 1.209 1.209 0 0 0 .958.931 1.154 1.154 0 0 0 1.178-.611 7.755 7.755 0 0 0 .339-.805 16.234 16.234 0 0 1 2.008-3.7 13.1 13.1 0 0 1 2.195-2.5 10.207 10.207 0 0 1 5.838-2.281 3.164 3.164 0 0 1 3 1.159A8.508 8.508 0 0 0 45 649.725a4.453 4.453 0 0 1 2.087 3.847v2.1c0 .761.042 1.522-.007 2.278a6.254 6.254 0 0 1-2.747 5.237c-.344.223-.651.511-.989.737a6.907 6.907 0 0 1-4.171 1.257 31.969 31.969 0 0 1-3.678-.528 3.037 3.037 0 0 1-1.284-.55c-1.171-.788-2.357-1.556-3.535-2.325a6.448 6.448 0 0 1-2.826-3.037 2.156 2.156 0 0 0-.921-1.024.644.644 0 0 0-.5-.032.529.529 0 0 0-.253.405 12.477 12.477 0 0 0 .29 1.9c.683 2.6 1.694 5 4.137 6.511a2.114 2.114 0 0 1 .265.231 8.083 8.083 0 0 0 2.909 1.638c.776.27 1.6.413 2.4.619a9.592 9.592 0 0 0 4.049.133c1.569-.26 3.113-.675 4.665-1.034a1.653 1.653 0 0 0 .484-.206c1.314-.788 2.625-1.581 3.938-2.367a2.135 2.135 0 0 0 1.014-1.166 1.31 1.31 0 0 1 1.183-.913 1.039 1.039 0 0 0 .587-.344 5.86 5.86 0 0 0 .921-1.274 18.117 18.117 0 0 0 1.333-3.8 5.954 5.954 0 0 0 .071-2.436 41.212 41.212 0 0 0-1.024-4.444" class="cls-3" transform="translate(20.732 -435.987)"/>
            <path id="Path_2751" d="M168.567 625.013a6.73 6.73 0 0 1 .776-2.31 1.96 1.96 0 0 0 .233-.663 41.95 41.95 0 0 0 .663-4.152 7.89 7.89 0 0 0-.334-2.765 18.478 18.478 0 0 0-1.323-3.059 6.817 6.817 0 0 0-1.122-1.566 13.04 13.04 0 0 0-4.7-3.049 2.365 2.365 0 0 0-1.036-.214 6.241 6.241 0 0 1-2.742-.614 5.1 5.1 0 0 0-3.081-.417 15.846 15.846 0 0 1-1.937.03 19.435 19.435 0 0 0-5.622 1.532 4.662 4.662 0 0 0-3.229 3.457 9.808 9.808 0 0 0-.245 1.021 15.209 15.209 0 0 1-.523 2.038 15.445 15.445 0 0 0-.81 7.26 4.92 4.92 0 0 0 2.34 3.756.833.833 0 0 0 1.129-.054 2.4 2.4 0 0 1-.648-1.223c-.135-.629-.268-1.255-.417-1.878a6.472 6.472 0 0 1 .079-3.965 2.573 2.573 0 0 0 .12-.685 14.848 14.848 0 0 1 1.724-5.117c.079-.155.157-.314.248-.462a4.152 4.152 0 0 1 5.173-1.922 8.268 8.268 0 0 1 3.683 2.013 2.923 2.923 0 0 0 .692.54 14.811 14.811 0 0 1 4.191 3.948 17.624 17.624 0 0 1 1.64 2.487 3.221 3.221 0 0 1 .366 2.023 11.572 11.572 0 0 1-1.075 4.031 8.314 8.314 0 0 1-5.08 4.331 9.019 9.019 0 0 1-3.666.452 8.069 8.069 0 0 1-1.547-.312 14.333 14.333 0 0 1-1.483-.572 5.324 5.324 0 0 1-2.607-2.013 5.664 5.664 0 0 0-1-.962c-.349.042-.707.061-1.053.132-.562.111-.741.405-.513.864a7.694 7.694 0 0 0 3.356 3.732c1.048.54 2.1 1.073 3.179 1.552.751.336 1.544.589 2.328.852a4.836 4.836 0 0 0 2.458.162 13.924 13.924 0 0 0 7.822-3.806 24.885 24.885 0 0 0 2.507-2.708 2.25 2.25 0 0 0 1.093-1.726" class="cls-3" transform="translate(191.366 -490.014)"/>
            <path id="Path_2752" d="M65.633 565.148a9.822 9.822 0 0 0-3.238-2.057c-.776-.268-1.564-.516-2.34-.791a5.577 5.577 0 0 0-2.428-.214 14.113 14.113 0 0 0-4.073 1.12 5.538 5.538 0 0 0-1.363.788 15.005 15.005 0 0 0-3.013 2.931 11.55 11.55 0 0 0-1.935 2.9 2.062 2.062 0 0 1-.4.572 9.4 9.4 0 0 0-1.812 4.5q-.18 1.035-.29 2.082a2.732 2.732 0 0 0 .012 1.038 25.36 25.36 0 0 0 .881 2.659 7.49 7.49 0 0 0 1.326 2.264 12.844 12.844 0 0 0 3.54 2.88 21.779 21.779 0 0 1 3.084 1.694 11.08 11.08 0 0 0 4.7 1.942 8.714 8.714 0 0 0 6.023-.754 2.847 2.847 0 0 1 .8-.358 15.608 15.608 0 0 0 3.577-1.505 8.507 8.507 0 0 0 4.456-5.4 11.1 11.1 0 0 0 .277-3.329 12.182 12.182 0 0 0-.27-3.1c-.282-.83-.54-1.669-.842-2.492a4.121 4.121 0 0 0-.535-1.1 23.792 23.792 0 0 0-2.487-2.961c-1.2-1.127-2.409-2.232-3.651-3.312m3.047 19.877a3.633 3.633 0 0 1-2 1.886 19.169 19.169 0 0 1-1.981.761 4.918 4.918 0 0 1-1.218.162c-.53.03-1.066.007-1.6.007v-.007h-1.6a4.694 4.694 0 0 1-1.731-.307 9.279 9.279 0 0 0-1.355-.41 15.586 15.586 0 0 1-6.69-3.435c-.273-.223-.525-.476-.813-.675a3.209 3.209 0 0 1-1.174-1.5 11.608 11.608 0 0 1-.7-3.415 1.852 1.852 0 0 1 .525-1.446 6.211 6.211 0 0 1 .877-.867c1.085-.8 2.178-1.606 3.31-2.337.594-.385 1.164-.786 1.724-1.22.832-.653 1.733-1.213 2.612-1.81a2.315 2.315 0 0 1 .309-.162 8.649 8.649 0 0 1 5.2.056 17.134 17.134 0 0 1 5.546 4.294 8 8 0 0 1 1.915 5.342 13.643 13.643 0 0 1-1.169 5.087" class="cls-3" transform="translate(47.682 -554.129)"/>
            <path id="Path_2753" d="M147.646 661.179a12.7 12.7 0 0 0 2.932-6.1 3.906 3.906 0 0 0 .081-1.387 9.1 9.1 0 0 0-1.043-3.324 4.229 4.229 0 0 1-.675-1.79 12.108 12.108 0 0 0-1.341-3.6 3.761 3.761 0 0 0-1.473-1.714c-.6-.756-1.181-1.527-1.812-2.266a10.22 10.22 0 0 0-.994-.931A12.565 12.565 0 0 0 137 635.8a6.773 6.773 0 0 0-4.341.088 9.974 9.974 0 0 1-2.74.695 8.318 8.318 0 0 0-5.149 2.843 16.2 16.2 0 0 0-3.651 6.354 4.238 4.238 0 0 0-.189 1.031 18.087 18.087 0 0 0 .764 6.929c.209.606.442 1.208.663 1.812a3.023 3.023 0 0 0 1 1.458 13.882 13.882 0 0 0 .879 1.508 46.708 46.708 0 0 0 4.446 4.482 2.735 2.735 0 0 0 .587.383c.567.314 1.144.607 1.7.933a6.09 6.09 0 0 1 1.156.783 7.443 7.443 0 0 0 3.342 1.515 3.335 3.335 0 0 0 2.873-.489 15.1 15.1 0 0 1 2.357-1.2c1.338-.609 2.688-1.193 4.014-1.829a20.047 20.047 0 0 0 1.994-1.132 4.071 4.071 0 0 0 .938-.786m-1.289-4.326a4.368 4.368 0 0 1-1 1.206 13.28 13.28 0 0 1-3.4 2.2 5.17 5.17 0 0 1-3.953.211 14.708 14.708 0 0 0-2.409-.575 9.039 9.039 0 0 1-5.834-3.661 2.346 2.346 0 0 0-.329-.412 12.449 12.449 0 0 1-3.022-4.689 10.553 10.553 0 0 1-.8-2.858 4.616 4.616 0 0 1 .943-3.641 30.453 30.453 0 0 0 2.355-3.489c.128-.2.241-.4.356-.6a5.22 5.22 0 0 1 2.2-2.217 7.039 7.039 0 0 0 .754-.5 4.11 4.11 0 0 0 .869-.007c1.986-.432 3.862.157 5.765.543a12.548 12.548 0 0 1 3.319 1.621c.26.142.5.317.746.481.405.471.8.953 1.218 1.419.528.6 1.068 1.181 1.6 1.773.238.467.449.948.717 1.4a4.4 4.4 0 0 1 .717 2.489 4.9 4.9 0 0 0 .658 2.693 2.56 2.56 0 0 1 .216 1.859 15.152 15.152 0 0 1-1.706 4.765" class="cls-3" transform="translate(158.541 -447.263)"/>
            <path id="Path_2754" d="M110.165 575.365a10.328 10.328 0 0 0 .206 1.38 48.168 48.168 0 0 1 1.322 5.255 3.1 3.1 0 0 0 .241.661 6.933 6.933 0 0 0 3.035 3.545 9.518 9.518 0 0 0 6.749 1.5 10.79 10.79 0 0 1 1.232-.073 6.132 6.132 0 0 0 1.23-.145c1.242-.388 2.485-.771 3.688-1.26a8.891 8.891 0 0 0 2.929-1.945 20.477 20.477 0 0 0 3.58-4.11 5.009 5.009 0 0 1 .525-.7 11.7 11.7 0 0 0 2.644-6.032 9.815 9.815 0 0 0 .012-2.774 4.038 4.038 0 0 0-2.062-3.091 3.036 3.036 0 0 1-.965-.994c-1.007-1.439-2.026-2.873-3.094-4.277a5.121 5.121 0 0 0-1.289-1.188 15.631 15.631 0 0 0-2.794-1.515 8.193 8.193 0 0 0-4.67-.651 7.55 7.55 0 0 1-1.1.115 9.009 9.009 0 0 0-3.27.25.816.816 0 0 0-.464.238 10.572 10.572 0 0 1-2.168 1.507 3.76 3.76 0 0 0-.906.827 23.184 23.184 0 0 0-1.544 1.92 28.729 28.729 0 0 0-2.4 4.476 4.5 4.5 0 0 0-.231.847c-.142.688-.275 1.377-.417 2.065a6.2 6.2 0 0 0-.091 2.946 7.741 7.741 0 0 1 .069 1.225m2.045-3.887c.2-.852.309-1.723.476-2.583a5.692 5.692 0 0 1 .319-1.176c.53-1.237 1.08-2.468 1.662-3.683a2.752 2.752 0 0 1 .729-.972 12.964 12.964 0 0 1 3.155-1.92 10.445 10.445 0 0 1 5.421-.454 6.389 6.389 0 0 1 4.046 2.332 11.015 11.015 0 0 1 3.027 5.664 10.414 10.414 0 0 1 .28 4.513 7.978 7.978 0 0 1-1.1 3.29 14.722 14.722 0 0 0-.889 1.716 5.036 5.036 0 0 1-2.141 2.274 7.4 7.4 0 0 1-4.191 1.2c-.53-.034-1.066-.012-1.6-.012a7.258 7.258 0 0 1-2.259-.4 25.753 25.753 0 0 0-3.535-1.137 1.384 1.384 0 0 1-1.142-1.392 9.151 9.151 0 0 1 .071-1.392c.02-.282.15-.6-.192-.769-.307-.15-.57.042-.82.2s-.479.307-.852.55a4.2 4.2 0 0 1-.673-2.008 12.76 12.76 0 0 1 .206-3.837" class="cls-3" transform="translate(142.64 -558.822)"/>
            <path id="Path_2755" d="M87.66 656.917a3.845 3.845 0 0 0 1.753.007c.459-.088.938-.093 1.4-.152a4.145 4.145 0 0 0 1.213-.209 9.911 9.911 0 0 1 2.566-.636 2.394 2.394 0 0 0 .835-.265c1.247-.773 2.5-1.547 3.715-2.379a11.328 11.328 0 0 0 2.185-1.758c.582-.668 1.2-1.279 1.836-1.893 1.164-1.13 1.166-1.13 1.306-2.716.027-.292.029-.584.042-.876.052-.872.113-1.746.15-2.62a5.552 5.552 0 0 0-.354-2.409 18.56 18.56 0 0 0-1.451-2.8 12.742 12.742 0 0 1-1.471-3.364 6.507 6.507 0 0 0-2.72-3.548 17.262 17.262 0 0 0-3.592-1.876 4.294 4.294 0 0 0-3.091-.081c-1.063.356-2.148.641-3.226.958a11.281 11.281 0 0 0-2.784 1.112 2.5 2.5 0 0 1-.8.371 3.276 3.276 0 0 0-2.192 1.35 1.394 1.394 0 0 1-.579.39 4.784 4.784 0 0 0-2.254 2.8.561.561 0 0 0 .1.479c.093.118.295.152.452.226a7.2 7.2 0 0 1 2.305-2.133c.575-.417 1.137-.835 1.706-1.255.233-.172.454-.376.7-.53a13.675 13.675 0 0 1 7.152-1.613 2.162 2.162 0 0 1 .354.042 2.322 2.322 0 0 1 1.7 1.122 9.21 9.21 0 0 1 1.674 3.839c.1.4.2.8.3 1.188a5.6 5.6 0 0 1 .169 3.275 4.258 4.258 0 0 0-.071.874c-.137 1.513-.27 3.022-.427 4.532-.032.346-.155.685-.219 1.029a2.545 2.545 0 0 1-.832 1.512c-.66.582-1.365 1.11-2.008 1.714a8.59 8.59 0 0 1-2.544 1.566 6.82 6.82 0 0 1-5 .373 14.271 14.271 0 0 1-4.815-2.89 6.415 6.415 0 0 1-2.33-3.422 6.807 6.807 0 0 0-.334-.813 3.881 3.881 0 0 1-.172-2.414 7.247 7.247 0 0 1 1.606-3.467c.091-.513.187-1.026.27-1.544.007-.04-.056-.1-.1-.133a.234.234 0 0 0-.164-.025.971.971 0 0 0-.307.152 9.307 9.307 0 0 0-2.789 5.907 2.369 2.369 0 0 0 .047.872 10.819 10.819 0 0 1 .231 2.961 5.114 5.114 0 0 0 .687 2.684 9.136 9.136 0 0 0 1.451 1.974 18.606 18.606 0 0 0 3.263 2.681 9.009 9.009 0 0 0 4.93 1.746 2.133 2.133 0 0 1 .523.086" class="cls-3" transform="translate(93.971 -456.558)"/>
            <path id="Path_2756" d="M187.532 587a17.15 17.15 0 0 0-1.66-6.052 22.6 22.6 0 0 0-2.6-3.965 8.33 8.33 0 0 0-3.258-2.364 12.516 12.516 0 0 1-1.6-.724 2.253 2.253 0 0 0-2.04-.115 34.855 34.855 0 0 1-3.374 1.043 18.225 18.225 0 0 0-6.106 2.72 4.887 4.887 0 0 0-1.832 2.084 4.857 4.857 0 0 1-2.043 2.34 3.713 3.713 0 0 0-1.547 1.871 7.246 7.246 0 0 0-.511 4.95c.2.614.4 1.223.6 1.829a10.115 10.115 0 0 0 5.063 5.63 17.5 17.5 0 0 0 5.161 1.827c.923.174 1.859.294 2.789.442a11.956 11.956 0 0 0 4.658-1.073 19.725 19.725 0 0 0 3.82-1.831 2.591 2.591 0 0 1 .815-.339 2.412 2.412 0 0 0 1.355-1.078c.975-1.591 2.129-3.113 2.161-5.1a18.3 18.3 0 0 0 .147-2.087m-8.245 1.176c-.481.936-.943 1.883-1.434 2.816a5.492 5.492 0 0 1-2.961 2.637 17.607 17.607 0 0 1-2.18.729 6.722 6.722 0 0 1-5.993-1.281c-.55-.44-1.083-.906-1.633-1.341a5.1 5.1 0 0 1-1.979-3.771 9.691 9.691 0 0 1 .02-1.925 3.773 3.773 0 0 1 2.011-3.091 2.065 2.065 0 0 0 .447-.277c.8-.771 1.586-1.554 2.379-2.335.206-.2.415-.41.621-.619A6.42 6.42 0 0 1 171.8 578a7.938 7.938 0 0 0 2.357-.742 2.279 2.279 0 0 1 1.549-.184c.525.088 1.039.216 1.557.329a1.313 1.313 0 0 1 1.029 1.08 1.106 1.106 0 0 1 .054.344 5.26 5.26 0 0 0 .57 2.185 18.134 18.134 0 0 1 .9 4.793 4.858 4.858 0 0 1-.53 2.377" class="cls-3" transform="translate(216.502 -537.325)"/>
            <path id="Path_2757" d="M165.633 643.565a4.914 4.914 0 0 0-.759-1.372 16.394 16.394 0 0 0-2.013-1.969 6.2 6.2 0 0 0-1.972-1.147c-1.738-.511-3.486-1.2-5.365-.572a6.511 6.511 0 0 1-.7.069 15.653 15.653 0 0 0-3.791.822 2.193 2.193 0 0 1-.685.177 5.81 5.81 0 0 0-3.5 1.9q-.917.95-1.917 1.814a13.625 13.625 0 0 0-2.794 3.594 1 1 0 0 0-.118.5.492.492 0 0 0 .381.521 3.415 3.415 0 0 0 .528.054 40.6 40.6 0 0 1 4.1-4.122 7.147 7.147 0 0 1 3.558-1.846 2.282 2.282 0 0 0 .67-.219 5.368 5.368 0 0 1 2.423-.447 19.66 19.66 0 0 0 3.889-.219 1.418 1.418 0 0 1 1.164.3 7.458 7.458 0 0 1 1.785 1.694 2.191 2.191 0 0 1 .422.761 14.741 14.741 0 0 1 .417 4.174 13.473 13.473 0 0 1-2.254 6.575 5.926 5.926 0 0 0-.381.592 9 9 0 0 1-3.845 3.742c-1.851 1.016-3.828 1.088-5.816 1.3a2.285 2.285 0 0 1-.53-.056 10.506 10.506 0 0 1-7.027-4.341 2.859 2.859 0 0 1-.633-1.429 7.378 7.378 0 0 1 .206-3.13c.2-.6.3-1.242.447-1.866a5.473 5.473 0 0 0-2.148 3.312 3.685 3.685 0 0 0-.169 1.375 8.21 8.21 0 0 0 .992 3.165c.8 1.3 1.635 2.576 2.477 3.84a5.551 5.551 0 0 0 2.1 1.851 12.362 12.362 0 0 0 5.205 1.588 5.065 5.065 0 0 1 .879.106 12.544 12.544 0 0 0 3.71.16 7.924 7.924 0 0 0 4.049-1.1c1.65-.518 2.939-1.726 4.53-2.367a3.7 3.7 0 0 0 .862-.6 8.434 8.434 0 0 0 2.961-5.978c.167-1.507.106-3.034.137-4.552a5.377 5.377 0 0 0-.052-1.228 27.6 27.6 0 0 0-1.409-5.421" class="cls-3" transform="translate(185.17 -443.23)"/>
            <path id="Path_2758" d="M154.92 658.28a2.522 2.522 0 0 0-.309-.626c-.611-.862-1.228-1.719-1.871-2.563a3.394 3.394 0 0 0-.754-.734 35.626 35.626 0 0 0-6.086-3.557 5.938 5.938 0 0 0-1.171-.4 27.36 27.36 0 0 0-7.064-.4 2.085 2.085 0 0 0-1.559.729c-.43.481-.847.977-1.314 1.424a6.833 6.833 0 0 0-1.3 1.869 23.043 23.043 0 0 0-1.851 5.114 9.118 9.118 0 0 0-.1 3.315c.206 1.834 1.483 3 2.72 4.174.187.179.449.047.6-.172a2.374 2.374 0 0 0 .145-.322.9.9 0 0 1-.167-.307 12.948 12.948 0 0 1 1.262-9.8 9.3 9.3 0 0 1 1.647-1.807 1.587 1.587 0 0 1 .805-.319c.633-.113 1.282-.157 1.92-.263a1.75 1.75 0 0 1 1.333.327c.673.471 1.341.955 2 1.453a3.575 3.575 0 0 1 .619.614c.768.962 1.522 1.93 2.276 2.9a5.872 5.872 0 0 1 1.152 3.062 11.773 11.773 0 0 1-.422 4.665 4.256 4.256 0 0 1-1.3 2.04 7.773 7.773 0 0 1-4.788 2.008c-.592.037-1.181.047-1.765.12a3.509 3.509 0 0 1-3.578-1.778 9.492 9.492 0 0 1-.648-1.436c-.3-.034-.589-.081-.881-.1-.248-.012-.5.211-.471.422a4.588 4.588 0 0 0 .243 1.183 8.88 8.88 0 0 0 3.7 3.911 9.745 9.745 0 0 0 6.688 1.08 17.838 17.838 0 0 0 7.761-3.283 7.981 7.981 0 0 0 3.155-4.925c.263-1.08.4-2.188.614-3.275a2.188 2.188 0 0 0-.1-1.206c-.385-1.046-.751-2.094-1.139-3.14" class="cls-3" transform="translate(173.903 -426.222)"/>
            <path id="Path_2759" d="M36.418 590.871a3.839 3.839 0 0 1-.57-1.269 7.291 7.291 0 0 0-1.824-3.739 4.635 4.635 0 0 1-.481-.737 2.034 2.034 0 0 0-1.043-.908 3.654 3.654 0 0 1-1.692-1.235 3.687 3.687 0 0 0-2.58-1.382c-1.166-.189-2.342-.322-3.518-.415-.94-.074-1.893-.054-2.838-.052a3.061 3.061 0 0 0-1.048.135 19.138 19.138 0 0 0-2.261 1 5.4 5.4 0 0 1-1.419.69 1.745 1.745 0 0 0-.631.3 20.269 20.269 0 0 0-4.3 3.9c-.54.692-1.088 1.382-1.633 2.072a6.419 6.419 0 0 0-1.439 3.155 4.579 4.579 0 0 1-.4 1.331 2.217 2.217 0 0 0-.106 1.532 21.877 21.877 0 0 0 2.647 5.907 4.3 4.3 0 0 0 .921 1.061 20.075 20.075 0 0 0 2.475 1.981 12.983 12.983 0 0 0 7.348 2.237 21.054 21.054 0 0 0 5.072-.7c1.64-.516 3.094-1.441 4.689-2.06a25.934 25.934 0 0 1 3.148-1.949 5.456 5.456 0 0 0 2.647-3.97 20.325 20.325 0 0 0 .27-2.779 3.763 3.763 0 0 0-.238-1.365 14.551 14.551 0 0 0-1.2-2.733M30.3 593.7c-.079.579-.14 1.159-.231 1.736a7.072 7.072 0 0 1-4.554 5.794 15.368 15.368 0 0 1-3.324 1.188 9.143 9.143 0 0 1-4.378-.2c-.842-.275-1.687-.547-2.509-.864a14.619 14.619 0 0 1-4.891-3.4 1.108 1.108 0 0 1-.209-.28 4.272 4.272 0 0 1-.162-.425 5.132 5.132 0 0 0 .543-2.8 3.7 3.7 0 0 1 .616-2.325 11.439 11.439 0 0 0 .577-1.088A11.161 11.161 0 0 1 14.135 588c.57-.506 1.08-1.078 1.638-1.6a4.462 4.462 0 0 1 1.1-.879 32.438 32.438 0 0 1 4.228-1.8 4.926 4.926 0 0 1 2.959-.042c.616.2 1.245.385 1.854.6a2.59 2.59 0 0 1 1.586 1.517 27.724 27.724 0 0 0 1.873 3.369 6.52 6.52 0 0 1 .927 4.535" class="cls-3" transform="translate(-4.915 -526.361)"/>
            <path id="Path_2760" d="M64.5 581a1.284 1.284 0 0 0-.511-.138 7.441 7.441 0 0 1-1.873-.513 2.424 2.424 0 0 0-1.2-.169 9.645 9.645 0 0 0-3.064.81 4.541 4.541 0 0 1-1.149.457 3.622 3.622 0 0 0-1.743 1.149c-1.223 1.267-2.428 2.551-3.641 3.828a14.866 14.866 0 0 0-3.071 4.677 6.915 6.915 0 0 0-.67 3.233 24.689 24.689 0 0 0 .587 3.8 10.759 10.759 0 0 0 1.64 4.039 3.615 3.615 0 0 1 .41.778 6.92 6.92 0 0 0 2.288 2.848 16.6 16.6 0 0 0 3.558 3.575 2.534 2.534 0 0 0 .953.41c.231.061.462-.042.469-.383-.535-.413-1.107-.805-1.63-1.262-.567-.5-1.08-1.063-1.625-1.589-.42-.4-.854-.793-1.282-1.191a11.047 11.047 0 0 0-.687-1.412 6.634 6.634 0 0 1-.931-2.254c-.233-.965-.442-1.94-.764-2.877a19.016 19.016 0 0 1-.938-4.788 6.91 6.91 0 0 1 .82-3.71 17.18 17.18 0 0 1 3.774-4.591 4.269 4.269 0 0 1 .889-.56 6.476 6.476 0 0 0 .938-.486 7.437 7.437 0 0 1 3.437-1.269 3.977 3.977 0 0 1 2.413.282 15.835 15.835 0 0 1 3.894 2.391 12.475 12.475 0 0 1 3.091 3.57c.636 1.183 1.186 2.411 1.765 3.621.255.528.486 1.061.727 1.593a4.207 4.207 0 0 1-.543 2.5 2.887 2.887 0 0 0-.2 1.012c.128.118.255.238.383.358.012-.11.02-.223.042-.331a.43.43 0 0 1 .081-.135c.064.054.174.1.187.169.042.214.052.442.074.66a4.107 4.107 0 0 1-.4 1.733 1.239 1.239 0 0 1-.236-1.115c.079-.329.162-.656.248-.982-.128-.12-.255-.241-.383-.358a5.594 5.594 0 0 0-.329 3.862 2.364 2.364 0 0 0-.71 1.412c-.425.4-.835.813-1.287 1.183a6.121 6.121 0 0 0-1.547 1.652 4.235 4.235 0 0 1-2.224.992 10.863 10.863 0 0 0-5.669 2.649c-.26.224-.513.447-.825.722a4.5 4.5 0 0 0 .582.729c.356.3.768.538 1.147.815a5.7 5.7 0 0 0 4.871.906c.231-.051.457-.105.687-.157a4.5 4.5 0 0 0 2.485-.717c.489-.226.987-.442 1.468-.69.133-.066.2-.246.3-.373.12-.115.243-.231.361-.346a.456.456 0 0 0 .624-.13 6.978 6.978 0 0 0 .457-.908c.115-.118.233-.236.349-.356a3.875 3.875 0 0 0 1.942-1.645 6.324 6.324 0 0 1 .533-.678 3.051 3.051 0 0 0 .712-1.9l-.368-.371c.059-.059.108-.106.157-.147-.049.042-.1.088-.157.147l.368.371c.236-.123.474-.248.707-.368.123-.464.246-.921.371-1.382a1.539 1.539 0 0 0 .331-1.063 10.246 10.246 0 0 0 .506-4.032 1.621 1.621 0 0 1 .214-.4 2.971 2.971 0 0 0 .83-2.733c-.066-.521-.088-1.048-.16-1.569a5.472 5.472 0 0 0-1.127-2.9 7.522 7.522 0 0 0-1.711-1.75 2.148 2.148 0 0 1-.665-.57 9.5 9.5 0 0 0-2.293-2.16 5.141 5.141 0 0 1-.8-.69 30.4 30.4 0 0 0-3.555-3.16A14.365 14.365 0 0 0 64.5 581m6.406 20.575a2.975 2.975 0 0 1-.162.457 2.975 2.975 0 0 0 .162-.457m-.6 1.068c.064-.064.12-.128.177-.2-.056.069-.113.133-.177.2a2.29 2.29 0 0 1-.093.7 2.29 2.29 0 0 0 .093-.7" class="cls-3" transform="translate(51.844 -527.781)"/>
            <path id="Path_2761" d="M144.741 579.635a12.078 12.078 0 0 0 1.451 4.292c.317.562.616 1.127.881 1.711a5.716 5.716 0 0 0 .992 1.446 15.141 15.141 0 0 0 6.266 3.855 6.932 6.932 0 0 0 3.666.4 16.264 16.264 0 0 0 3.219-.97c1.655-.683 2.961-1.92 4.542-2.713.405-.5.8-1.007 1.228-1.49a3.258 3.258 0 0 1 .562-.42 1.437 1.437 0 0 0 .621-1.2 6.085 6.085 0 0 1 .064-.628c.115-.074.16-.13.211-.13.226-.015.52.079.663-.027a1.353 1.353 0 0 0 .459-.71 3.172 3.172 0 0 0 .059-1.215 5.813 5.813 0 0 1 .255-2.757 8.742 8.742 0 0 0 .528-3.45c-.074-.7-.206-1.387-.319-2.077a12.038 12.038 0 0 0-1.306-3.8 18.716 18.716 0 0 0-3.371-4.029 3.167 3.167 0 0 0-.744-.474c-.358-.2-.744-.363-1.093-.577a9.293 9.293 0 0 0-4.171-1.353 22.713 22.713 0 0 0-2.644-.123 15.906 15.906 0 0 0-4.547.626c-1.009.344-2 .722-3 1.093a4.278 4.278 0 0 0-2.043 1.606 15.722 15.722 0 0 0-1.748 3.435 11.713 11.713 0 0 0-.955 4.785 45.43 45.43 0 0 0 .275 4.893m1.6-1.328a21.421 21.421 0 0 0 .317-3.31 12.361 12.361 0 0 1 2.9-7.024 5.219 5.219 0 0 1 4.149-1.594 10.92 10.92 0 0 1 1.4.174 1.681 1.681 0 0 1 1.107.508 7.442 7.442 0 0 0 1.873 1.306c.648.4 1.306.8 1.927 1.25a9.42 9.42 0 0 1 3.44 4.137 18.167 18.167 0 0 1 1.043 2.968 7.381 7.381 0 0 1-.223 3.8 15.588 15.588 0 0 1-2.858 5.207 5.562 5.562 0 0 1-1.029.963 12.37 12.37 0 0 1-3.916 2.008 15.948 15.948 0 0 1-1.6.329 6.543 6.543 0 0 1-4.547-1.53 23.887 23.887 0 0 1-1.836-1.9 3.272 3.272 0 0 1-.818-1.534 4.465 4.465 0 0 0-.351-.987 15.23 15.23 0 0 1-.992-4.255 1.291 1.291 0 0 1 .007-.523" class="cls-3" transform="translate(192.857 -552.468)"/>
            <path id="Path_2762" d="M87.87 641.719a25.1 25.1 0 0 1 3.85-3.052 3.4 3.4 0 0 0 1.28-1.411c.172-.371.361-.737.5-1.12a3.646 3.646 0 0 1 .9-1.485 2.148 2.148 0 0 0 .538-.879 8.528 8.528 0 0 0 .516-2.551 9.27 9.27 0 0 0-.061-2.769 1.519 1.519 0 0 1-.022-.351 1.547 1.547 0 0 1 .648-1.529 1.229 1.229 0 0 0 .609-1.2 6.739 6.739 0 0 0-1.758-4.294A25.99 25.99 0 0 1 92.26 618a6.22 6.22 0 0 0-2.6-2.043 6.379 6.379 0 0 1-1.566-.8 1.452 1.452 0 0 0-1.154-.349 2.531 2.531 0 0 1-1.507-.393 5.044 5.044 0 0 0-3.437-.469 17.679 17.679 0 0 1-2.089.366 6.834 6.834 0 0 0-2.779 1.078 20.3 20.3 0 0 0-3.722 2.954c-.759.749-1.584 1.385-1.67 2.568a4.547 4.547 0 0 1-.491 1.115 9.824 9.824 0 0 0-.813 4.957 5.343 5.343 0 0 1 .034 1.048 14.029 14.029 0 0 0 1.142 5.988 18.034 18.034 0 0 0 1.23 2.313c.032.059.206.054.317.054.032 0 .086-.086.1-.137a3.062 3.062 0 0 0-.142-1.552 26.106 26.106 0 0 1-.771-3.759c-.15-1.215-.393-2.421-.636-3.622a4.506 4.506 0 0 1 .263-2.573 15.9 15.9 0 0 1 2.2-3.577 24.9 24.9 0 0 1 1.959-2.021 3.812 3.812 0 0 1 3.165-1.282c.179.012.358 0 .535 0 .236 0 .471.01.71 0a3.965 3.965 0 0 1 2.652.805c.471.351 1 .628 1.483.957a13.458 13.458 0 0 1 4.731 4.881 14.288 14.288 0 0 1 1.26 6.464 3.224 3.224 0 0 1-.064.341 17.766 17.766 0 0 1-1.215 3.29 6.846 6.846 0 0 1-4.552 3.616c-1.2.324-2.406.594-3.612.9a4.774 4.774 0 0 1-2.794-.044c-.444-.155-.889-.3-1.343-.427s-.911-.243-1.37-.336a1.6 1.6 0 0 0-.525.032.542.542 0 0 0-.393.8 9.326 9.326 0 0 0 4.25 3.295 11.323 11.323 0 0 0 7.645.02 2.977 2.977 0 0 0 1.179-.739" class="cls-3" transform="translate(85.031 -478.792)"/>
            <path id="Path_2763" d="M91.054 608.973a4.92 4.92 0 0 1-2.271 2.141 2.9 2.9 0 0 1-1.012.268c-.471.052-.943.027-1.419.037-.425.312-.859.614-1.267.953a.627.627 0 0 0-.11.457c0 .074.152.189.25.209.813.14 1.628.3 2.445.383a6.484 6.484 0 0 0 3.926-.852 10.147 10.147 0 0 0 4.375-5.136 8.018 8.018 0 0 1 .96-2.065 1.846 1.846 0 0 0 .223-.827 10.829 10.829 0 0 1 .329-2.072 4.155 4.155 0 0 0 .029-2.747 25.779 25.779 0 0 1-.6-2.558 8.624 8.624 0 0 0-1.589-3.675c-.962-1.262-1.868-2.561-2.828-3.823a2.483 2.483 0 0 0-.805-.67 12.782 12.782 0 0 0-1.77-.788 18.922 18.922 0 0 0-4.886-.808 2.7 2.7 0 0 0-.7.032c-1.321.3-2.674.432-3.98.822a6.369 6.369 0 0 0-3.091 1.616 8.352 8.352 0 0 1-.837.646 14.941 14.941 0 0 0-3.474 3.955 3.485 3.485 0 0 0-.471 1.486 15.675 15.675 0 0 0 .371 4.53 7.935 7.935 0 0 0 .8 2.315 35.574 35.574 0 0 0 2.244 3.361 27.534 27.534 0 0 0 3.862 3.852 6.9 6.9 0 0 0 4.572 1.618 1.1 1.1 0 0 0 .339-.086.553.553 0 0 0 .27-.854c-.238-.253-.523-.467-.788-.7a2.628 2.628 0 0 1-1.935-.7c-1.2-1.039-2.487-1.969-3.646-3.042a8.841 8.841 0 0 1-2.222-11.12 2.831 2.831 0 0 1 2.364-1.63c.528-.037 1.056-.125 1.579-.189a2.2 2.2 0 0 1 .528-.054 25.13 25.13 0 0 1 5.225.876 4.019 4.019 0 0 1 1.547.82 32.073 32.073 0 0 1 2.34 2.391A9.032 9.032 0 0 1 91.987 603c.015.874 0 1.751 0 2.63a7.278 7.278 0 0 1-.931 3.344" class="cls-3" transform="translate(88.044 -517.252)"/>
            <path id="Path_2764" d="M71.662 650.977c-.059-.521-.142-1.039-.2-1.559-.13-1.294-.837-2.426-1.063-3.7a2.314 2.314 0 0 0-.6-1.053 10.5 10.5 0 0 0-1.4-1.338 28.028 28.028 0 0 0-4.962-3.049 3.775 3.775 0 0 0-3.226-.373 1.607 1.607 0 0 1-.523.081 8.186 8.186 0 0 0-3.035.921c-1.016.476-2.05.9-3.071 1.363a10.207 10.207 0 0 0-1.112.555 15.467 15.467 0 0 0-3.678 2.986 8.416 8.416 0 0 0-2 3.275l.366.727c.71-.933 1.444-1.851 2.119-2.811a9.6 9.6 0 0 1 4.662-3.346c.444-.167.908-.275 1.341-.467a12.729 12.729 0 0 1 5.394-.71 6.794 6.794 0 0 1 3.472 1.22 1.4 1.4 0 0 1 .712 1.154 5.578 5.578 0 0 0 .685 2.34 3.943 3.943 0 0 1 .405 1.871c0 .994.052 1.991.01 2.985a20.191 20.191 0 0 1-.292 2.256 19.128 19.128 0 0 1-1.353 4.353 7.472 7.472 0 0 1-4.586 4.125 9.141 9.141 0 0 0-1.169.408 10.415 10.415 0 0 1-5.676 1.021 5.4 5.4 0 0 1-3.224-1.321 16.731 16.731 0 0 1-4.41-5.431 4.613 4.613 0 0 1-.562-2.352c.179-.361.368-.717.53-1.083a23.054 23.054 0 0 1 1.8-3.72 1.844 1.844 0 0 0 .145-.494l-.366-.727c-.508.908-1.039 1.807-1.522 2.723a7.085 7.085 0 0 0-.943 2.232 3.626 3.626 0 0 0-.376 1.7c0 1.053-.061 2.112.01 3.162a10.1 10.1 0 0 0 3.447 6.715 5.187 5.187 0 0 0 1.046.658 13.174 13.174 0 0 0 3.3 1.257 12.262 12.262 0 0 0 6.484.2 4.127 4.127 0 0 1 2.1-.211 1.058 1.058 0 0 0 .683-.086 8.292 8.292 0 0 1 1.866-.528 6.755 6.755 0 0 0 1.814-.688 12.914 12.914 0 0 1 2.541-1.23 5.741 5.741 0 0 0 3.182-3.364 23.572 23.572 0 0 0 .876-2.48 5.2 5.2 0 0 0 .3-1.365c.108-2.03.533-4.056.074-6.1a5.994 5.994 0 0 1-.022-.7" class="cls-3" transform="translate(46.564 -441.16)"/>
            <path id="Path_2765" d="M143.41 624.263a15.695 15.695 0 0 0 9.762-4.846c.818-.845 1.588-1.726 2.362-2.612a7.44 7.44 0 0 0 .94-1.264 20.055 20.055 0 0 0 1.755-6.03 3.051 3.051 0 0 0-.027-.7c-.02-.467-.066-.933-.056-1.4a11.724 11.724 0 0 0-.982-4.6 5.42 5.42 0 0 0-.827-1.728c-1.142-1.232-1.765-2.954-3.469-3.663a.414.414 0 0 1-.13-.115 11.347 11.347 0 0 0-3.454-2.379 7.142 7.142 0 0 0-4.464-.67c-1.338.206-2.649.584-3.98.862a7.794 7.794 0 0 0-4.513 2.9c-.147.182-.295.366-.447.545-.422.489-.835.982-1.267 1.461a10.078 10.078 0 0 0-2.74 4.427 3.694 3.694 0 0 1-.246.66 18.2 18.2 0 0 0-1.178 6.506c0 .351-.02.7 0 1.053.1 1.517.214 3.022 1.321 4.25a6.9 6.9 0 0 1 .665 1.235 7.761 7.761 0 0 0 1.812 2.357c.913.739 1.844 1.456 2.787 2.163a9.016 9.016 0 0 0 6.374 1.589m-9.119-7.5c-.746-.825-1.446-1.692-2.114-2.581a1.9 1.9 0 0 1-.3-.987 11.49 11.49 0 0 1 .508-5.014c.466-1.134.822-2.313 1.23-3.472a2.549 2.549 0 0 0 .187-.491 5.45 5.45 0 0 1 1.525-2.878 23.15 23.15 0 0 0 2.524-3.15 2.763 2.763 0 0 1 1.925-1.147c.918-.209 1.863-.3 2.787-.489a4.061 4.061 0 0 1 2.256.174c.778.278 1.566.53 2.357.773a4.951 4.951 0 0 1 2.851 2.48c.665 1.169 1.247 2.384 1.908 3.558a4.21 4.21 0 0 1 .548 1.643c.118 1.1.268 2.195.405 3.295a12.822 12.822 0 0 1-1.535 6.081 3.609 3.609 0 0 1-.589.864c-.749.741-1.52 1.468-2.3 2.18a9.985 9.985 0 0 1-4.233 2.1 12.242 12.242 0 0 1-1.743.322 2.6 2.6 0 0 1-1.048 0 25.552 25.552 0 0 1-5.9-2.3 5.187 5.187 0 0 1-1.25-.96" class="cls-3" transform="translate(172.455 -507.403)"/>
            <path id="Path_2766" d="M103.726 650.6a7.2 7.2 0 0 1-1.859-1.851 20.355 20.355 0 0 0-1.775-2.18 10.7 10.7 0 0 0-1.724-1.5 11.091 11.091 0 0 0-5.306-1.763c-3.3-.324-3.742-.255-6.6 1.25-.209.108-.42.221-.616.341a10.028 10.028 0 0 0-3.194 3c-.552.832-1.154 1.635-1.662 2.492a10.3 10.3 0 0 0-1.687 4.206 4.246 4.246 0 0 0-.339 2.487v2.448a2.12 2.12 0 0 0 .346 1.422c.15.805.282 1.615.464 2.411a2.9 2.9 0 0 0 .425.955 23.385 23.385 0 0 0 3.327 3.862 17.052 17.052 0 0 0 5.031 2.892 17.972 17.972 0 0 0 4.478 1.026 2.657 2.657 0 0 0 1.552-.273 10.818 10.818 0 0 0 1.2-.147 1.162 1.162 0 0 0 .945-.9h.7c.167.049.349.179.493.142a2.463 2.463 0 0 0 2.075-1.669c.064-.223.16-.442.238-.663-.339.165-.68.322-1.031.452.351-.13.692-.287 1.031-.452.123-.216.241-.437.363-.658l1.093-1.382a1.408 1.408 0 0 0 1.608-1.048c.27-.83.572-1.645.862-2.47.125-.567.228-1.146.381-1.709.273-1 .336-2.094 1.21-2.848a.7.7 0 0 0 .167-.3 6.668 6.668 0 0 0-2.2-7.572m-4.871 10.336c-.589.115-.847.57-1.08 1.046-.341.6-.687 1.2-1.031 1.8a5.366 5.366 0 0 1-2.593 2.028 3.49 3.49 0 0 1-1.736.194c-.464-.076-.933-.147-1.39-.245-1.385-.295-2.762-.616-4.149-.9a10.321 10.321 0 0 1-3.58-1.431 3.987 3.987 0 0 0-1.758-.776 1.287 1.287 0 0 1-1.056-.84c-.287-.638-.54-1.291-.808-1.94l-.01-3.513c.263-1.017.523-2.033.788-3.049a1.168 1.168 0 0 1 .133-.324 26.2 26.2 0 0 1 1.79-2.6 22.452 22.452 0 0 1 2.637-2.588 5.419 5.419 0 0 1 3.334-1.449 27.563 27.563 0 0 0 3.148-.447 3.453 3.453 0 0 1 2.232.371A10.306 10.306 0 0 1 98 650.105c.439.759.886 1.515 1.326 2.276a5.014 5.014 0 0 1 .619 2.524c.012 1.166-.1 2.328-.118 3.5a2.949 2.949 0 0 1-.967 2.531" class="cls-3" transform="translate(97.514 -436.12)"/>
            <path id="Path_2767" d="M129.447 588.169a8.123 8.123 0 0 0 .223 1.733 13.905 13.905 0 0 0 4.692 7.265 9 9 0 0 1 .972.756 8.062 8.062 0 0 0 3.464 2.043 7.369 7.369 0 0 0 4.854.241 5.3 5.3 0 0 0 2.627-1.363 12.05 12.05 0 0 0 4.387-4.471 18.885 18.885 0 0 0 1.832-4.731 10.526 10.526 0 0 0 .356-3.973c0-.611.037-1.2-.01-1.778a5.571 5.571 0 0 0-.282-1.547 11.839 11.839 0 0 0-3.764-5.207 2.543 2.543 0 0 0-.778-.41 10.134 10.134 0 0 1-2.534-1.235 1.716 1.716 0 0 0-1.345-.268 2.029 2.029 0 0 1-1.385-.145 6.8 6.8 0 0 0-3.1-.57c-2.487-.049-3.337.179-5.205 1.7a8.746 8.746 0 0 1-1.9 1.279 4.379 4.379 0 0 0-2.472 3.022 15.156 15.156 0 0 0-.66 4.5c.022 1.051-.01 2.107.029 3.157m1.439-.849c.015-.236 0-.469 0-.7h.069c0-.584-.029-1.169 0-1.75a6.66 6.66 0 0 1 3.231-5.527 3.683 3.683 0 0 1 1.508-.415 6.137 6.137 0 0 1 4.036.994c.867.5 1.738.987 2.634 1.436a5.992 5.992 0 0 1 2.244 1.944 10.056 10.056 0 0 1 1.574 3.862 10.332 10.332 0 0 1-1.355 7.235 3.855 3.855 0 0 1-2.07 1.812 13.775 13.775 0 0 1-3.955.877c-.592.049-1.186.052-1.773.086a2.822 2.822 0 0 1-3.086-2.052 6.4 6.4 0 0 0-1.456-2.765 6.57 6.57 0 0 1-1.608-5.036" class="cls-3" transform="translate(170.963 -536.001)"/>
            <path id="Path_2768" d="M134.464 593.735a9.95 9.95 0 0 0 .466 1.321 5.655 5.655 0 0 1 .383 1.156 8.593 8.593 0 0 1-1.753 6.607 9.451 9.451 0 0 0-1.048 1.4 4.32 4.32 0 0 1-2.087 1.827c-.734.366-1.471.751-2.227 1.073a19 19 0 0 1-1.839.616 1.633 1.633 0 0 1-1.35-.253 4.043 4.043 0 0 1-1.419-1.534c-.589-1.016-1.21-2.013-1.824-3.015a16.334 16.334 0 0 1-1.8-4.184 8.423 8.423 0 0 1-.2-3.646 5.113 5.113 0 0 1 1.144-2.531 10.4 10.4 0 0 1 2.215-2.008 14.6 14.6 0 0 1 5.482-1.913 2.839 2.839 0 0 1 1.058.027c2.03.432 2.283.093 3.928 1.758.039.042.086.1.137.1a1.146 1.146 0 0 0 .466-.005c.069-.017.106-.2.115-.307a2 2 0 0 0-.361-1.154 7.954 7.954 0 0 0-7.582-3.58c-.7.091-1.409.182-2.1.329a11.911 11.911 0 0 0-3.656 1.321c-1 .6-2.124 1.041-2.728 2.163a2.608 2.608 0 0 1-.8.675 6.74 6.74 0 0 0-1.532 1.446 4.42 4.42 0 0 1-1.643 1.559 1.582 1.582 0 0 0-.638.805c-.96 2.183-1.557 4.412-.741 6.794.184.552.317 1.124.5 1.679a7.573 7.573 0 0 0 2.46 3.769 12.076 12.076 0 0 1 2.477 2.5 2.875 2.875 0 0 0 1.068.9c.837.44 1.655.908 2.507 1.321a3.22 3.22 0 0 0 1.016.253 9.015 9.015 0 0 0 1.063.01v.047c.881-.086 1.76-.219 2.647-.241a3.417 3.417 0 0 0 1.515-.407c.837-.432 1.657-.911 2.526-1.265a7.275 7.275 0 0 0 3.268-2.61c.879-1.242 1.765-2.482 2.529-3.813a13.309 13.309 0 0 0 1.358-4.5 3.778 3.778 0 0 0-.032-1.4 11.907 11.907 0 0 0-1.3-3.626 2.231 2.231 0 0 0-.449-.525.749.749 0 0 0-1.075.214 1.588 1.588 0 0 0-.142.84" class="cls-3" transform="translate(145.828 -520.084)"/>
            <path id="Path_2769" d="M180.672 654.925a1.5 1.5 0 0 0-.444-.54c-.651-.6-1.289-1.208-1.969-1.768a5.614 5.614 0 0 0-2.328-1.23 6.8 6.8 0 0 1-1.949-.813 5.315 5.315 0 0 0-2.536-.719 15.146 15.146 0 0 0-4.238.209c-.341.086-.707.066-1.056.118-.761.115-1.517.226-2.269.375a4.343 4.343 0 0 0-2.615 1.694c-.464.6-.935 1.211-1.345 1.849a7.965 7.965 0 0 0-.8 1.564c-.329.874-.555 1.785-.859 2.671a20.067 20.067 0 0 0-.444 2.936 13.1 13.1 0 0 0-.01 3.833 12.646 12.646 0 0 0 2.178 5.306 8.889 8.889 0 0 0 3.44 2.963 9.875 9.875 0 0 0 5.117 1.382 9.235 9.235 0 0 0 4.522-1.208c.732-.376 1.441-.8 2.151-1.225a8.171 8.171 0 0 0 3.786-4.26 9.125 9.125 0 0 1 1.3-2.46 4.666 4.666 0 0 0 1.1-2.546 9.1 9.1 0 0 0 .351-4.817 18.241 18.241 0 0 0-1.083-3.315m-5.495 9.529a9.043 9.043 0 0 1-2.4 4.223c-.43.4-.815.842-1.255 1.235a4.8 4.8 0 0 1-3.361 1.338 7.528 7.528 0 0 1-6.02-2.018c-.533-.457-1.029-.955-1.591-1.476a4.635 4.635 0 0 0-.673-2.094 8.562 8.562 0 0 1-.427-4.309c.209-1.09.422-2.178.687-3.253a7.145 7.145 0 0 1 2.789-4.329 4.753 4.753 0 0 1 5.006-.26c.876.486 1.753.972 2.593 1.515a11.3 11.3 0 0 1 4.626 5.8 5.847 5.847 0 0 1 .029 3.626" class="cls-3" transform="translate(212.082 -426.419)"/>
            <path id="Path_2770" d="M127.968 608.674c-.891.3-1.812.525-2.728.749a3.391 3.391 0 0 0-1.576.761 15.073 15.073 0 0 0-2.1 1.873 2.072 2.072 0 0 1-.714.491 11.984 11.984 0 0 0-2.887 2.558.7.7 0 0 0-.179.3 30.116 30.116 0 0 0-1.532 4.837 7.527 7.527 0 0 0 2.08 6.766c.759.736 1.451 1.53 2.175 2.293a14.492 14.492 0 0 0 1.3 1.183 16.726 16.726 0 0 0 6.784 3.27 9.169 9.169 0 0 0 4.206.079c1.208-.265 2.411-.577 3.634-.764a6.477 6.477 0 0 0 3.837-2.335 9.708 9.708 0 0 0 1.814-3.565 11.317 11.317 0 0 0-1.11-9.949 8.892 8.892 0 0 0-2.561-2.629c-.164-.115-.513.049-.584.25a1.216 1.216 0 0 0 .147 1.169c.533.773 1.093 1.525 1.65 2.283a12.558 12.558 0 0 1 1.8 3.4 4.285 4.285 0 0 1 0 2.755c-.125.39-.3.766-.405 1.161a5.928 5.928 0 0 1-2.519 3.675c-.2.125-.356.307-.548.447a9.439 9.439 0 0 1-5.463 1.768 1.764 1.764 0 0 1-.7-.091 1.92 1.92 0 0 1-.9-.5 5.612 5.612 0 0 0-1.91-1.53 9.007 9.007 0 0 1-2.509-2.443 35.112 35.112 0 0 1-2.138-3.634 5.687 5.687 0 0 1-.793-3.3 6.969 6.969 0 0 1 .587-3.312 8.625 8.625 0 0 1 3.5-3.862 5.768 5.768 0 0 1 3.9-.9 8.976 8.976 0 0 1 3.373 1.021 6.862 6.862 0 0 0 1.478.572 1.37 1.37 0 0 0 1.2-.093c.191-.128.064-.587-.339-1.073a7.938 7.938 0 0 0-.958-1.029 17.785 17.785 0 0 0-2.219-1.748 6.9 6.9 0 0 0-6.086-.906" class="cls-3" transform="translate(151.663 -486.795)"/>
            <path id="Path_2771" d="M117.914 623.895a15.067 15.067 0 0 0 2.784-.39 15.272 15.272 0 0 0 2.5-1.274 6.385 6.385 0 0 0 .771-.432 2.188 2.188 0 0 0 .638-.587 11.1 11.1 0 0 0 1.365-2.428 5.42 5.42 0 0 1 1.284-.913 3.378 3.378 0 0 0 2.048-1.792 1.792 1.792 0 0 1 .324-.412 6.505 6.505 0 0 0 1.7-3.938 9.8 9.8 0 0 0 .017-3.29 8.5 8.5 0 0 1-.047-1.4 7.373 7.373 0 0 0-.108-1.213 2.4 2.4 0 0 0-.869-1.481.9.9 0 0 0-1-.02.683.683 0 0 0-.287.761 13.322 13.322 0 0 1 .435 1.866 16.307 16.307 0 0 1-.39 5.9 14.557 14.557 0 0 1-1.665 3.422 17.85 17.85 0 0 1-1.8 2.146 11.194 11.194 0 0 0-1.461.633 2.468 2.468 0 0 1-2.843-.115 11.112 11.112 0 0 0-3.192-1.49 18.364 18.364 0 0 1-3.86-2.112 4.7 4.7 0 0 1-.921-.82 2.95 2.95 0 0 1-.854-1.881 11.478 11.478 0 0 1 4.466-10.371 6.058 6.058 0 0 1 2.212-1.08 15.8 15.8 0 0 1 5.107-.28 3.122 3.122 0 0 1 .695.155 6.827 6.827 0 0 1 2.821 1.414 2.3 2.3 0 0 0 1.245.629.514.514 0 0 0 .584-.285.6.6 0 0 0-.01-.491 4.276 4.276 0 0 0-1.51-1.451c-.9-.562-1.785-1.151-2.713-1.67a12.784 12.784 0 0 0-3.894-1.655 9.689 9.689 0 0 0-6.72.754c-.417.228-.857.405-1.269.633a10.915 10.915 0 0 0-2.939 2.239c-.739.835-1.463 1.687-2.195 2.526a1.307 1.307 0 0 0-.388 1.125 2.751 2.751 0 0 1-.233 1.534c-.27.742-.238 1.64-1.166 2.011a8.323 8.323 0 0 0-1.365 4.476 12.519 12.519 0 0 0 .2 2.094 6.081 6.081 0 0 0 1.485 3.69 23.157 23.157 0 0 0 4.5 3.638 1.465 1.465 0 0 0 1.07.344 21.248 21.248 0 0 1 3.54 1.048 3.824 3.824 0 0 0 1.908.231" class="cls-3" transform="translate(135.741 -502.846)"/>
            <path id="Path_2772" d="M82.339 562.671c-.746 1.392-1.508 2.777-2.256 4.172a3.2 3.2 0 0 0-.246.658 71 71 0 0 0-1.554 7.739 2.244 2.244 0 0 0 .241 1.53 12.724 12.724 0 0 0 8.578 6.293 7.468 7.468 0 0 0 3.172.012 3.518 3.518 0 0 0 .987-.378.477.477 0 0 0 .253-.594c-.091-.192-.275-.437-.454-.474a2.737 2.737 0 0 0-1.039.017 5.6 5.6 0 0 1-3.292-.462A9.752 9.752 0 0 1 81.681 576a1.056 1.056 0 0 1 .051-1 11.427 11.427 0 0 1 2.254-2.919 25.751 25.751 0 0 1 4.567-3.31 2.026 2.026 0 0 1 .651-.28 17.058 17.058 0 0 1 3.688-.449 3.688 3.688 0 0 1 1.994.641 8.361 8.361 0 0 1 3.14 3.933 6.591 6.591 0 0 1-.513 5.583 5.065 5.065 0 0 1-2.458 2.44 2.656 2.656 0 0 0-1.392 1.294 1.052 1.052 0 0 0-.061.665c.074.258.351.29.592.243a5.152 5.152 0 0 0 1.191-.314 16 16 0 0 0 4.4-2.9 6.909 6.909 0 0 0 2.21-5.367 10.943 10.943 0 0 0-.444-3.1 9.164 9.164 0 0 0-1.927-4.1 10.208 10.208 0 0 1-1.414-2.219 3.691 3.691 0 0 0-1.51-1.677q-.379-.225-.744-.479a10.876 10.876 0 0 0-5.6-1.989 4.2 4.2 0 0 1-.7-.083 9.328 9.328 0 0 0-6.02.9 2.667 2.667 0 0 0-1.291 1.156" class="cls-3" transform="translate(96.499 -556.479)"/>
            <path id="Path_2773" d="M10.665 624.723a8.191 8.191 0 0 0 4.166 2.838 11.6 11.6 0 0 0 5.063.646 23.338 23.338 0 0 0 2.8-.417 9.9 9.9 0 0 0 4.579-2.2 15.692 15.692 0 0 0 5.124-8.021c.029-.115.064-.228.1-.336a11.014 11.014 0 0 0 .447-5.2c-.12-.985-.265-1.969-.417-2.949a4.594 4.594 0 0 0-.28-1.014 13.031 13.031 0 0 0-2.679-4.3 6.107 6.107 0 0 0-1.368-1.07 10.179 10.179 0 0 0-5.841-1.515c-.432 0-.611.005-.791 0a6.6 6.6 0 0 0-3.6.744 7.009 7.009 0 0 1-1.326.486 3.521 3.521 0 0 0-1.886 1.24 3.523 3.523 0 0 1-1.372 1.078 7.331 7.331 0 0 0-2.853 2.566 11.136 11.136 0 0 1-.906 1.3c-1.39 1.478-1.716 3.435-2.44 5.212a1.473 1.473 0 0 0-.076.518 22.735 22.735 0 0 0 .1 4.027 3.029 3.029 0 0 1 .128 1.038 4.857 4.857 0 0 0 .5 2.546 2.076 2.076 0 0 0 1.117 1.294 4.39 4.39 0 0 1 1.714 1.493m-1.838-7.075a9.01 9.01 0 0 0-.179-1.038 1.835 1.835 0 0 1-.088-.516c.219-1.5.12-3.042.737-4.473a1.431 1.431 0 0 1 .989-.923 2.655 2.655 0 0 0 1.7-1.439 4.349 4.349 0 0 1 1.277-1.436 4.465 4.465 0 0 0 .771-.719 12.29 12.29 0 0 1 3.29-2.355 2.823 2.823 0 0 1 1.535-.371 1.73 1.73 0 0 1 1.552.682 3.727 3.727 0 0 0 1.657 1.272 1.03 1.03 0 0 0 .155.081c2.593 1.07 3.926 3.26 5.09 5.6a9.708 9.708 0 0 1-.71 8.291c-.4.653-.8 1.294-1.2 1.947a3.887 3.887 0 0 1-1.714 1.476 12.407 12.407 0 0 1-5.281 1.348c-.651.007-1.3 0-1.952 0-.827 0-1.66.012-2.487 0a3.46 3.46 0 0 1-2.411-.965c-.255-.241-.54-.454-.788-.7a1.438 1.438 0 0 1-.415-.557c-.459-1.748-1.417-3.356-1.532-5.208" class="cls-3" transform="translate(-7.072 -497.229)"/>
            <path id="Path_2774" d="M82.731 627.32a12.663 12.663 0 0 1 1.228-1 4.258 4.258 0 0 0 1.1-1.117 23.311 23.311 0 0 1 1.647-2.487 8.421 8.421 0 0 0 1.569-4.407c.012-.346.123-.69.162-1.038a6.2 6.2 0 0 0 .115-1.39c-.106-1.161-.12-2.325-.238-3.489a8.307 8.307 0 0 0-1.2-3.442 15.566 15.566 0 0 0-1.92-2.512 6.541 6.541 0 0 0-3.236-2.03 2.557 2.557 0 0 1-.935-.457 14.935 14.935 0 0 0-4.437-2.146 6.622 6.622 0 0 0-6.671 1.031c-.184.145-.381.28-.555.44a4.331 4.331 0 0 1-1.488.923 4.976 4.976 0 0 0-1.872 1.29 10.965 10.965 0 0 1-1.024.977 3.542 3.542 0 0 0-1.129 1.539c-.165.435-.435.835-.584 1.274a18.952 18.952 0 0 0-.837 2.856 23.453 23.453 0 0 0-.108 2.973 14.554 14.554 0 0 0 1.332 5.592 3.067 3.067 0 0 0 .361.6 23.735 23.735 0 0 0 2.706 3.238 15.961 15.961 0 0 0 1.623 1.363 1.437 1.437 0 0 0 1.176.246.592.592 0 0 0 .447-.8c-.16-.307-.368-.594-.56-.889-.653-.587-1.3-1.186-1.967-1.758a12.381 12.381 0 0 1-2.742-3.835 4.883 4.883 0 0 1-.545-1.655c-.133-1.147-.562-2.283-.147-3.459a2.215 2.215 0 0 0 0-.7c-.12-3.747 2.541-6.884 6.155-8.08a2.683 2.683 0 0 1 1.215-.1 5.478 5.478 0 0 1 2.148.771c.741.476 1.488.943 2.2 1.461a23.043 23.043 0 0 1 2.482 1.969 23.176 23.176 0 0 1 3.489 4.385 9.014 9.014 0 0 1 1.239 4.143 13.674 13.674 0 0 1-1.662 6.9 4.747 4.747 0 0 1-2.2 2.2 9.7 9.7 0 0 1-3.015.98 7.281 7.281 0 0 1-5.222-1.085 7.154 7.154 0 0 0-.859.155.411.411 0 0 0-.169.592 2.5 2.5 0 0 0 .5.479 12.933 12.933 0 0 0 7.618 1.888 6.1 6.1 0 0 0 1.873-.479 7.976 7.976 0 0 0 2.934-1.913" class="cls-3" transform="translate(73.317 -496.952)"/>
            <path id="Path_2775" d="M51.855 590.287c-.081-.118-.307-.157-.479-.194a5.505 5.505 0 0 1-2.038-1.024 12.443 12.443 0 0 0-6.592-2.305c-.707-.056-1.412-.133-2.109-.253a3.573 3.573 0 0 0-1.4.059 15.539 15.539 0 0 0-4.984 2.6 1.936 1.936 0 0 0-.471.516c-.653.9-1.35 1.783-1.932 2.733a10.754 10.754 0 0 0-1.517 3.715 27.691 27.691 0 0 0-.206 6.293 4.3 4.3 0 0 0 .476 1.49c.312.69.692 1.35 1.024 2a1.206 1.206 0 0 1-.088.371.946.946 0 0 0-.049 1.279 7.864 7.864 0 0 0 1.208 1.5c1.026.8 1.891 1.765 2.836 2.644a6.9 6.9 0 0 0 4.348 1.726 12.229 12.229 0 0 0 4.9-.582c.508-.169 1.016-.326 1.532-.454a7.907 7.907 0 0 0 2.59-1.11c1.223-.818 2.391-1.709 3.54-2.63a9.746 9.746 0 0 0 2.288-2.882c.373-.663.788-1.3 1.132-1.986a6.187 6.187 0 0 0 .913-4.356 14.174 14.174 0 0 1-.086-1.922 4.667 4.667 0 0 0-.314-1.53 16.459 16.459 0 0 0-1.937-3.332c-.746-.935-1.881-1.4-2.583-2.362m-1.827 9.541c.015 4.945-2.1 7.874-5.706 9.9a11.484 11.484 0 0 1-2.283.94 5.693 5.693 0 0 1-3.97-.336 20.41 20.41 0 0 1-3-1.505A14.6 14.6 0 0 1 32.933 607a1.152 1.152 0 0 1-.309-.783 9.692 9.692 0 0 0-.606-3.079 7.728 7.728 0 0 1-.293-4.138c.241-1.014.192-2.084.422-3.118a7.936 7.936 0 0 1 1.068-2.762c.2-.29.354-.606.523-.913a7.991 7.991 0 0 1 3.278-3.111 4.665 4.665 0 0 1 3.754-.363c.624.182 1.255.331 1.873.516a5.028 5.028 0 0 1 3.035 1.984 3.219 3.219 0 0 0 .538.695 14.674 14.674 0 0 1 2.659 3.9 7.515 7.515 0 0 1 1.154 4" class="cls-3" transform="translate(26.366 -518.593)"/>
            <path id="Path_2776" d="M85.1 646.986c-.476-1.13-1.068-2.21-1.652-3.29a5.372 5.372 0 0 0-1.915-2.028 16.872 16.872 0 0 0-5.75-2.187 3.606 3.606 0 0 0-1.4-.012c-1.147.258-2.274.606-3.41.921a5.217 5.217 0 0 0-2.494.341 3.917 3.917 0 0 0-1.812 1.048 1.727 1.727 0 0 0 .653.012c.518-.2 1.014-.462 1.517-.7.516 0 1.034-.01 1.552-.01a2.347 2.347 0 0 0 1.313-.331 4.012 4.012 0 0 0 2.067.339 6.035 6.035 0 0 1 2.092.268 3.93 3.93 0 0 1 2.389 2.17 8.774 8.774 0 0 1 .921 3.7 4.387 4.387 0 0 0 .142.862 23.588 23.588 0 0 1 .064 5.927 6.307 6.307 0 0 1-.327 1.36 3.381 3.381 0 0 1-1.181 1.709 13.656 13.656 0 0 1-5.485 2.7 6.828 6.828 0 0 1-5.689-1.144c-.241-.7-.835-.7-1.422-.7l-.729-.3c-.214-.845-.241-.862-1.026-.763a13.05 13.05 0 0 1-.832-1.515c-.373-.972-.626-1.989-1.009-2.956a2.867 2.867 0 0 1 .054-2.357c.4-.9.845-1.783 1.24-2.684.557-1.274 1.088-2.558 1.628-3.84a1.364 1.364 0 0 0-1.016.626 36.332 36.332 0 0 0-2.634 4.532 6.239 6.239 0 0 0-.471 4.248 6.576 6.576 0 0 1 .194 1.905c-.007.525-.027 1.048-.017 1.574A6.632 6.632 0 0 0 62.509 661a11.29 11.29 0 0 0 2.148 1.8 5.781 5.781 0 0 0 2.448.943c.7.084 1.4.2 2.092.339a5.576 5.576 0 0 0 1.751.017c1.458-.174 2.922-.327 4.39-.4a5.911 5.911 0 0 0 3.084-1.08c.729-.491 1.417-1.041 2.121-1.561.363.567.55.641.872.243a3.288 3.288 0 0 1 1.527-1.09 1.317 1.317 0 0 0 .815-.845 7.7 7.7 0 0 0 2.6-3.472 6.372 6.372 0 0 0 .361-4.11 29.184 29.184 0 0 0-1.616-4.807" class="cls-3" transform="translate(70.36 -441.559)"/>
            <path id="Path_2777" d="M181.75 648.029a7.5 7.5 0 0 1-.371-1.161c-.241-1.677-1.264-3.008-2.026-4.449a2.372 2.372 0 0 0-.606-.629 7.618 7.618 0 0 1-.832-.651 7.165 7.165 0 0 0-3.148-1.888c-.329-.123-.665-.253-1-.366a12.187 12.187 0 0 0-7.142-.017 3.009 3.009 0 0 0-.486.211 13.181 13.181 0 0 0-5.613 4.672c-.354.538-.633 1.125-.994 1.66a3.6 3.6 0 0 0-.54 2.684c.081.518.189 1.034.285 1.554a13.624 13.624 0 0 0 .351 3.153 2.664 2.664 0 0 1 .349 1.76 1.865 1.865 0 0 0 .349 1.083 1.982 1.982 0 0 0 .582 1.429 7.222 7.222 0 0 0 1.321 1.166c2.416 1.412 4.932 2.561 7.854 2.323 2.124-.177 4.238-.4 5.858-2.031a4.738 4.738 0 0 1 .744-.474c.54-.353 1.107-.683 1.611-1.083a10.015 10.015 0 0 0 3.037-3.6c.295-.638.538-1.3.793-1.954a2.879 2.879 0 0 0 .1-1.9c-.147-.5-.309-1-.474-1.5m-8 4.888a20.223 20.223 0 0 1-1.959 2.013 4.72 4.72 0 0 1-2.784 1.007 10.607 10.607 0 0 1-3-.135 25.692 25.692 0 0 1-3.275-.724 3.683 3.683 0 0 1-2.055-1.564 2.073 2.073 0 0 0-.12-.5 6.076 6.076 0 0 1-.592-3.017 4.1 4.1 0 0 0 .808-1.731 8.178 8.178 0 0 1 3.59-5.018 18.009 18.009 0 0 1 2.539-1.584 6.462 6.462 0 0 1 4.157-.307 3.006 3.006 0 0 1 1.927 1.451 6.993 6.993 0 0 1 1.21 3.614c.022.877.01 1.755.022 2.632a10.647 10.647 0 0 0 .081 1.92 2.151 2.151 0 0 1-.547 1.944" class="cls-3" transform="translate(213.927 -443.106)"/>
            <path id="Path_2778" d="M33.118 643.29c-.57-2.993-1.861-5.524-4.643-7.105-.3-.174-.55-.444-.85-.631a10.957 10.957 0 0 0-1.375-.788 16.832 16.832 0 0 0-4.25-1.182 1.729 1.729 0 0 0-.869.062 7.259 7.259 0 0 1-2.409.515 3.314 3.314 0 0 0-1.016.278c-.886.329-1.755.7-2.642 1.026a3.661 3.661 0 0 0-1.787 1.377 2.27 2.27 0 0 0-.3.808.7.7 0 0 0 .741.779 2.739 2.739 0 0 0 1.424-.643 7.5 7.5 0 0 1 4.213-1.62 12.8 12.8 0 0 1 3.506.084 2.342 2.342 0 0 0 .351.022A6.442 6.442 0 0 1 27.2 638a3.194 3.194 0 0 1 1.178 3.133c-.2 1.09-.371 2.19-.528 3.29a11.718 11.718 0 0 1-2.026 5c-.466.675-.881 1.387-1.282 2.1a6.851 6.851 0 0 1-6.212 3.685c-.589.012-1.186-.047-1.773.012a4.138 4.138 0 0 1-3.089-1.083 6.7 6.7 0 0 1-1.991-2.433c-.214-.481-.489-.933-.7-1.419a9.631 9.631 0 0 1-1.009-3.523 18.287 18.287 0 0 1 .339-5.578 5.543 5.543 0 0 0 1.733-1.878.336.336 0 0 0-.047-.3.306.306 0 0 0-.292-.039 6.2 6.2 0 0 0-1.765 1.854 8.426 8.426 0 0 0-1.812 5.556 9.4 9.4 0 0 0 .233 2.608c.322.945.609 1.9.962 2.831a8.872 8.872 0 0 0 2.688 3.85 12.7 12.7 0 0 0 5.718 3.022c.869.167 1.711.435 2.583.584a10.54 10.54 0 0 0 3.339-.177 11.415 11.415 0 0 0 5.63-2.32 10.233 10.233 0 0 0 3.3-4.024 9.907 9.907 0 0 0 .786-2.853c.066-.695.147-1.392.253-2.084a8.719 8.719 0 0 0-.047-2.966c-.1-.516-.164-1.036-.26-1.554" class="cls-3" transform="translate(-5.837 -450.068)"/>
            <path id="Path_2779" d="M88.1 578.674a11.4 11.4 0 0 0-2.735 3.177 1.534 1.534 0 0 0-.2.486 18.274 18.274 0 0 0-.8 5.343 3.518 3.518 0 0 0 .66 1.954c.916 1.223 1.827 2.443 2.752 3.651a2.661 2.661 0 0 0 .631.611 12.609 12.609 0 0 0 5.816 2.413c.874.076 1.765.012 2.772.012.447.373.8.808 1.407.744a12.9 12.9 0 0 0 3.467-.619 10.657 10.657 0 0 0 4.213-2.828 9.047 9.047 0 0 0 1.989-3.852 11.658 11.658 0 0 0-.371-5.527 9.6 9.6 0 0 0-1.068-2.585 27.073 27.073 0 0 0-3.865-4.984 8.157 8.157 0 0 0-2.269-1.643 3.641 3.641 0 0 0-2.72-.415c-.678.187-1.372.334-2.045.533-.737.216-1.451.506-2.188.7a8.211 8.211 0 0 0-2.445.992c-.98.638-2.048 1.161-3.005 1.834m7.442 2.6c.508.1 1.262.226 2.006.39.341.076.668.228 1.007.324a7.267 7.267 0 0 1 4.7 4.422c.142.319.221.668.366.987.867 1.9.042 3.376-1.208 4.756a7.025 7.025 0 0 1-2.156 1.507 12.875 12.875 0 0 0-2.382 1.129 1.917 1.917 0 0 1-1.193.184 24.459 24.459 0 0 1-3.678-.376 12.21 12.21 0 0 1-2.939-1.174 3.845 3.845 0 0 1-1.53-1.655 20.29 20.29 0 0 1-1.525-4.1 2.439 2.439 0 0 1 .739-2.71c.405-.334.773-.719 1.147-1.092a9.472 9.472 0 0 1 6.651-2.593" class="cls-3" transform="translate(105.387 -536.01)"/>
            <path id="Path_2780" d="M108.423 629.067c-.049-.228-.071-.461-.106-.692l.083-.012c-.145-.98-.322-1.954-.422-2.939a2.783 2.783 0 0 0-1.058-1.947 3.9 3.9 0 0 1-1.289-1.846 2.311 2.311 0 0 0-.958-1.223 4.962 4.962 0 0 1-.685-.555 7.164 7.164 0 0 0-3.43-1.743c-1.321-.292-2.666-.481-4-.7a3.118 3.118 0 0 0-1.878.376 7.411 7.411 0 0 0-1.053.646 18.613 18.613 0 0 1-1.952 1.2 9.306 9.306 0 0 0-4.309 4.945 10.913 10.913 0 0 0-.683 7.029c.047.167.074.341.125.511a3.037 3.037 0 0 1 .049 1.731 5.575 5.575 0 0 0 3.472 6.32 8.637 8.637 0 0 0 4.166.594 18.043 18.043 0 0 0 5.281-1.883 2.588 2.588 0 0 0 .277-.214 21.854 21.854 0 0 1 2.519-1.616 6.325 6.325 0 0 0 2.2-1.736 38.662 38.662 0 0 0 3.337-4.734 2.012 2.012 0 0 0 .312-1.5m-8.733 4.542a1.183 1.183 0 0 1-.646.8 5.834 5.834 0 0 0-1.817 1.382 5.252 5.252 0 0 1-1.937 1.2 4.052 4.052 0 0 1-4.036-.479c-.142-.105-.3-.189-.439-.294-1.984-1.5-1.922-1.314-2.379-4.034-.108-.631-.209-1.267-.268-1.9a11.821 11.821 0 0 1 .169-4.53 4.938 4.938 0 0 1 2.637-3.349 20.373 20.373 0 0 1 4.608-1.79 3.4 3.4 0 0 1 .872-.108 1.1 1.1 0 0 1 .641.245 5.294 5.294 0 0 1 .815.921 16.216 16.216 0 0 1 2.377 4.873 14.543 14.543 0 0 1 .275 2.61 12.023 12.023 0 0 1-.872 4.464" class="cls-3" transform="translate(108.313 -473.618)"/>
            <path id="Path_2781" d="M100.918 631.041a9.872 9.872 0 0 0 7.8 3.2 7.242 7.242 0 0 0 3.076-.535 21.363 21.363 0 0 1 3.631-1.387 2.707 2.707 0 0 0 .621-.329 25.544 25.544 0 0 0 2.63-1.773 10.743 10.743 0 0 0 2.19-1.986 5.908 5.908 0 0 0 1.463-5.038c-.14-.805-.275-1.616-.466-2.406a2.162 2.162 0 0 0-.476-.921A8.681 8.681 0 0 1 119.7 617a10.077 10.077 0 0 0-3.211-4.105 4.706 4.706 0 0 0-3.806-1.078c-1.822.248-3.521.95-5.3 1.363a1.892 1.892 0 0 0-.466.246c-1.007.609-2.008 1.215-3.013 1.832a3.078 3.078 0 0 0-.4.339 22.991 22.991 0 0 0-1.746 1.746c-1.932 2.379-3.334 4.957-3.145 8.154a8.477 8.477 0 0 0 2.3 5.549m.786-9.126a7.205 7.205 0 0 1 .754-1.763 13.306 13.306 0 0 1 3.14-3.543 2.411 2.411 0 0 0 1.08-1.338.952.952 0 0 1 .636-.535 8.353 8.353 0 0 0 2.733-1.208 2.085 2.085 0 0 1 2.033-.052 2.691 2.691 0 0 1 1.7 1.871c.457 1.633.985 3.243 1.306 4.913a4.911 4.911 0 0 1 .066 1.736 15.587 15.587 0 0 0-.155 2.269 4.929 4.929 0 0 1-1.439 3.489 11.856 11.856 0 0 1-2.445 2.016 8.028 8.028 0 0 1-2.907.9 6.031 6.031 0 0 1-5.532-3.651 17.656 17.656 0 0 1-1.048-3.894 2.74 2.74 0 0 1 .076-1.205" class="cls-3" transform="translate(126.118 -481.782)"/>
            <path id="Path_2782" d="M40.945 648.706a4.393 4.393 0 0 0 .82-.655 19.743 19.743 0 0 0 3.219-3.715c.339-.548.822-.56 1.417-.55a4.086 4.086 0 0 0 .857-2.038c.02-.643.056-1.286.088-1.925a6.014 6.014 0 0 0-.82-3.535 3.5 3.5 0 0 1-.572-2 11.535 11.535 0 0 0-.417-2.767 3.819 3.819 0 0 0-.516-1.289 7.124 7.124 0 0 0-1.2-1.513 18.741 18.741 0 0 1-1.549-1.672 3.316 3.316 0 0 0-1.21-1c-1.876-.707-3.766-1.409-5.848-.931a6.463 6.463 0 0 1-1.237.071c-.474.012-.945.01-1.419.015a4.317 4.317 0 0 0-2.364.621 2.392 2.392 0 0 1-.97.4 6.47 6.47 0 0 0-3.378 1.814c-1.473 1.25-2.232 3-3.133 4.628a2.294 2.294 0 0 0-.091 1.883.568.568 0 0 0 .378.309.68.68 0 0 0 .486-.133.9.9 0 0 0 .3-.42 6.317 6.317 0 0 0 .179-.857 6.547 6.547 0 0 1 2.266-4.058c.4-.351.768-.729 1.147-1.1a2.378 2.378 0 0 1 1.242-.628c1.274-.253 2.549-.506 3.81-.81a9.276 9.276 0 0 1 5.713.7 3.852 3.852 0 0 1 2.585 2.689 7.643 7.643 0 0 0 .4.972 16.424 16.424 0 0 1 .85 7.255 3.783 3.783 0 0 1-.341 1.174 15.536 15.536 0 0 1-3.45 5.055 5.6 5.6 0 0 1-5.333 1.606 7.194 7.194 0 0 1-1.041-.206 6.342 6.342 0 0 1-2.286-.889 2.72 2.72 0 0 0-.805-.329c-.493-.189-.985-.381-1.48-.562a2.605 2.605 0 0 1-1.49-1.414 9.941 9.941 0 0 0-.935-1.481 8.829 8.829 0 0 1-1.67-3.639 4.459 4.459 0 0 0-.457-1.122c-.034-.074-.2-.093-.307-.115a.153.153 0 0 0-.13.086 5.511 5.511 0 0 0-.307 2.914c.11.452.147.923.221 1.385a26.564 26.564 0 0 0 .948 3.919 4.387 4.387 0 0 0 1.721 2.379 23.243 23.243 0 0 0 4.552 2.679 21.735 21.735 0 0 0 4.311.874 15.322 15.322 0 0 0 7.25-2.08" class="cls-3" transform="translate(14.424 -462.575)"/>
            <path id="Path_2783" d="M62.312 613.511a9.446 9.446 0 0 1-1.689 3.445 4.635 4.635 0 0 1-.994.977c-2.649 1.851-2.482 1.714-5.389 1.665a12.58 12.58 0 0 1-6.285-2.116 3.234 3.234 0 0 1-.6-.636c-.4-.245-.793-.489-1.186-.741-.2-.128-.368-.292-.57-.4a.353.353 0 0 0-.309.052.378.378 0 0 0-.128.3 2.093 2.093 0 0 0 .206.66c.6 1.078 1.2 2.151 1.817 3.214a8.57 8.57 0 0 0 3.572 3.3 14.679 14.679 0 0 0 5.129 1.237 2.511 2.511 0 0 0 .879-.1 16.781 16.781 0 0 0 6.553-2.946 5.705 5.705 0 0 1 1.2-.737 3.406 3.406 0 0 0 1.493-1.2 20.618 20.618 0 0 0 2.367-3.9c.943-2.212.906-2.853-.3-4.773a5.876 5.876 0 0 1-.921-2.254 15.316 15.316 0 0 0-1.068-3.324 5 5 0 0 0-1.527-2.32 4.732 4.732 0 0 1-1.247-1.206 3.58 3.58 0 0 0-.874-.845 17.857 17.857 0 0 0-1.625-1.07 6.92 6.92 0 0 0-4.434-.852 18.758 18.758 0 0 1-2.1.3c-1.257.017-2.2.8-3.288 1.213a8.7 8.7 0 0 0-1.647 1.016 2.262 2.262 0 0 0-.493.5 35.012 35.012 0 0 0-3.111 4.468 3.316 3.316 0 0 0-.393.965 19.056 19.056 0 0 1-.926 3.378 2.269 2.269 0 0 0-.125 1.029 6.762 6.762 0 0 0 .776 2.5 3.17 3.17 0 0 0 .319.422.679.679 0 0 0 1.142-.233 2.663 2.663 0 0 0 .1-.516c-.948-1.505-.754-3.145-.5-4.761a6.023 6.023 0 0 1 1.559-3.469 11.989 11.989 0 0 0 1.586-2.094 5.7 5.7 0 0 1 4.193-2.625 13.356 13.356 0 0 1 3 .042 2.913 2.913 0 0 1 2.161 1.068 9.793 9.793 0 0 0 1.873 1.844 1.944 1.944 0 0 1 .466.525c1.387 2.3 2.423 4.682 1.7 7.456-.135.508-.219 1.029-.349 1.537" class="cls-3" transform="translate(47.071 -500.527)"/>
            <path id="Path_2784" d="M80.577 618.4a9.312 9.312 0 0 0 .83 3.378c.766 2.158 2.418 3.562 4.093 4.96a3.265 3.265 0 0 0 .933.493 12.383 12.383 0 0 0 4.93 1 6.321 6.321 0 0 0 3.017-.477 2.192 2.192 0 0 1 .68-.177 12.858 12.858 0 0 0 3.054-.891c.884-.319 1.76-.67 2.639-1.014a1.981 1.981 0 0 0 .466-.236 27.644 27.644 0 0 0 4.461-3.985 4.439 4.439 0 0 0 .5-.719 13.7 13.7 0 0 0 1.311-5.227 1.694 1.694 0 0 0-.037-.346 17.392 17.392 0 0 0-.329-2.595 12.894 12.894 0 0 0-1.073-2.389 39.77 39.77 0 0 0-2.59-4.979 5.2 5.2 0 0 0-4.176-2.259 7.619 7.619 0 0 1-1.407-.128 5.7 5.7 0 0 0-4.132.5 28.832 28.832 0 0 0-4.942 2.72c-.741.575-1.611.982-2.364 1.539a8.2 8.2 0 0 1-2.061 1.332 2.107 2.107 0 0 0-.683.533c-.462.454-.911.918-1.331 1.409a5.26 5.26 0 0 0-.8 1.149c-.366.791-.67 1.615-.987 2.438a4.581 4.581 0 0 0-.2 2.757 4.992 4.992 0 0 1 .2 1.206m2.961-6.595a11.525 11.525 0 0 1 2.684-2.516 36.24 36.24 0 0 1 3.651-2.134c1.417-.712 2.838-1.417 4.25-2.136a21.992 21.992 0 0 1 2.266-.98 2.127 2.127 0 0 1 2.17.309 3.651 3.651 0 0 0 .444.292 6.056 6.056 0 0 1 2.912 4.567 14.491 14.491 0 0 1 .331 4.021 12.568 12.568 0 0 1-.378 3.8 9.108 9.108 0 0 1-2.742 5 6.56 6.56 0 0 1-1.409 1.043c-1.11.54-2.264.99-3.405 1.466a1.373 1.373 0 0 1-.513.118 18.727 18.727 0 0 1-5.453-.3 4.374 4.374 0 0 1-1.984-1.1 10.964 10.964 0 0 0-1.2-1.036 4.628 4.628 0 0 1-1.719-2.165 4.162 4.162 0 0 0-.486-.933 3.629 3.629 0 0 1-.6-2.158c.015-.641.012-1.286 0-1.925a4.92 4.92 0 0 1 1.186-3.226" class="cls-3" transform="translate(99.422 -495.091)"/>
            <path id="Path_2785" d="M117.186 648.516c.032-.287.091-.577.142-.867a10.9 10.9 0 0 0-.889-6.671c-.253-.53-.508-1.061-.741-1.6a9.543 9.543 0 0 0-2.028-2.86 15.617 15.617 0 0 0-2.541-1.876 2.378 2.378 0 0 0-.852-.211 12.088 12.088 0 0 1-3.219-.953 5.222 5.222 0 0 0-1.363-.366 15.491 15.491 0 0 1-1.574-.263 3.966 3.966 0 0 0-2.436.106 13.564 13.564 0 0 0-3.744 1.959 3.051 3.051 0 0 0-.592.648 17.314 17.314 0 0 0-2.367 3.486 3.464 3.464 0 0 0-.958 2.9 3.594 3.594 0 0 1-.037.874 4.427 4.427 0 0 0 .3 2.234 16.333 16.333 0 0 1 .776 2.516 11.52 11.52 0 0 0 1.792 3.977c.079.138.258.219.4.324a8.66 8.66 0 0 0 2.855 3.683c2.6 1.954 5.36 3.359 8.807 3.059a5.916 5.916 0 0 0 3.973-1.645 14.228 14.228 0 0 0 4.3-8.458m-7.717 6.118a8.592 8.592 0 0 1-5.622.968 7.2 7.2 0 0 0-1.22-.177 4 4 0 0 1-3.071-1.51 10.715 10.715 0 0 1-.889-1.3c-.466-.248-.94-.5-1.407-.744a5.958 5.958 0 0 0-.376-2.45 3.332 3.332 0 0 1-.194-.663 20.854 20.854 0 0 0-.609-3.442 7.974 7.974 0 0 1 .174-4.977 4.658 4.658 0 0 1 .675-1.218 16.722 16.722 0 0 1 1.336-1.4 3.335 3.335 0 0 1 1.864-.936c2.32-.356 2.32-.842 5.419.727a15.446 15.446 0 0 1 4.766 3.572 7.543 7.543 0 0 1 .933 1.269 11.624 11.624 0 0 1 1.645 6.538 6.463 6.463 0 0 1-3.423 5.738" class="cls-3" transform="translate(119.347 -451.309)"/>
            <path id="Path_2786" d="M50.325 648.327a2.013 2.013 0 0 0 .5.179c.565.162 1.127.341 1.7.479a2.571 2.571 0 0 0 1.039.113 4.4 4.4 0 0 1 3.386.587c.042.027.115.015.277.027.233-.108.538-.285.867-.4a3.718 3.718 0 0 1 1.186-.317 4.279 4.279 0 0 0 3.165-1.341c.246-.248.577-.407.832-.648a5.842 5.842 0 0 0 .825-.9 12.117 12.117 0 0 0 .921-1.5 3.489 3.489 0 0 0 .457-1.311 30.418 30.418 0 0 1 .435-3.123 3.616 3.616 0 0 0 .037-1.041c-.169-1.215-.334-2.433-.579-3.634a14.668 14.668 0 0 0-.7-2.168 3.131 3.131 0 0 0-.592-1.068 25.685 25.685 0 0 0-2.7-2.521c-1.218-.921-2.556-1.677-3.825-2.529a2.581 2.581 0 0 0-1.331-.412 12.728 12.728 0 0 0-4.385.457 5.687 5.687 0 0 0-2.6 1.436c-1.007 1.061-2 2.141-3 3.207a16.746 16.746 0 0 0-1.969 3.116 5.61 5.61 0 0 0-.741 2.676 23.962 23.962 0 0 0 .3 3.307 6.755 6.755 0 0 0 1.952 4.034 20.573 20.573 0 0 0 4.559 3.3m-3.96-14.137a4.651 4.651 0 0 1 2.19-2.659 1.486 1.486 0 0 0 .81-1.066 2.41 2.41 0 0 1 1.431-1.471 6.73 6.73 0 0 1 3.474-.764 3.185 3.185 0 0 1 2.4.751 16.53 16.53 0 0 0 2.087 1.316 6.306 6.306 0 0 1 2.082 2.571 3.716 3.716 0 0 1 .275 2.907 15.648 15.648 0 0 1-4.149 7.034 9.255 9.255 0 0 1-3.145 1.927 5.186 5.186 0 0 1-5.46-1 5.8 5.8 0 0 1-2.023-3.41c-.083-.457-.255-.9-.373-1.35a5.388 5.388 0 0 1-.26-1.191 9.4 9.4 0 0 1 .658-3.6" class="cls-3" transform="translate(45.954 -459.952)"/>
            <path id="Path_2787" d="M73.343 624.224a9.228 9.228 0 0 1-1.279-3.973 5.127 5.127 0 0 0-.339-1.527 5.819 5.819 0 0 0-2.136-3.15 2.525 2.525 0 0 1-.467-.523 2.7 2.7 0 0 0-1.147-.8 6.074 6.074 0 0 0-2.413-.5c-.943.015-1.893 0-2.838 0v.012c-.889 0-1.778-.034-2.664.01-.7.039-1.409.157-2.1.263a4.539 4.539 0 0 0-2.75 1.483c-.4.435-.842.822-1.245 1.25a12.506 12.506 0 0 0-3.067 4.869c-.26.847-.378 1.714-.572 2.566a6.87 6.87 0 0 0 .219 2.944 1.628 1.628 0 0 0 .366.587.653.653 0 0 0 .8.182 1.2 1.2 0 0 0 .4-.538 2.243 2.243 0 0 0 .017-.692 13.4 13.4 0 0 1 .491-3.99c.2-.673.528-1.309.714-1.981a9.991 9.991 0 0 1 2.637-4.107 4.423 4.423 0 0 1 2.963-1.417 6.416 6.416 0 0 0 1.237-.1 6.38 6.38 0 0 1 3.155.135 4.448 4.448 0 0 1 3.035 1.964 8.766 8.766 0 0 1 1.328 3.42 5.013 5.013 0 0 1 .027 1.566c-.415 2.183-.862 4.363-1.355 6.531a5.515 5.515 0 0 1-1.7 2.824 8.914 8.914 0 0 1-4.454 2 2.329 2.329 0 0 1-1.694-.4 6.419 6.419 0 0 0-1.952-.815A3.9 3.9 0 0 1 55 631.5c-.6-.474-1.215-.935-1.841-1.372a2.058 2.058 0 0 0-1.321-.442c-.26.02-.626.317-.6.555.054.4.137.8.214 1.2a4.374 4.374 0 0 0 1.689 3c1.4.943 2.723 2.107 4.559 2.188.179.01.356.005.53.012a17.469 17.469 0 0 0 5.939-.859 12.067 12.067 0 0 0 3.364-1.547 6.06 6.06 0 0 1 1.576-.783 4.968 4.968 0 0 0 2.364-1.778 10.311 10.311 0 0 0 1.193-1.738 12.437 12.437 0 0 0 1.355-3.779 1.812 1.812 0 0 0-.211-1.186c-.14-.255-.331-.486-.466-.746" class="cls-3" transform="translate(55.732 -478.896)"/>
            <path id="Path_2788" d="M24.657 610.809a1.792 1.792 0 0 0-.334.614 14.108 14.108 0 0 0-1.029 6c.1 1.336.322 2.664.5 3.992.044.346.128.688.187 1.036a3.57 3.57 0 0 0 1.041 1.984c.533.54 1.026 1.12 1.544 1.679a5.274 5.274 0 0 0 .506.489 17.583 17.583 0 0 0 4.743 2.686 2.2 2.2 0 0 0 .683.172 12.029 12.029 0 0 0 3.523-.118 16.458 16.458 0 0 0 4.969-2.234 4.021 4.021 0 0 0 1.809-2.07c.106-.27.241-.533.358-.8a4.377 4.377 0 0 0 .7.462.468.468 0 0 0 .4-.177 2.476 2.476 0 0 0-.064-.665 3.1 3.1 0 0 1 .869-2.055 11.331 11.331 0 0 0 2.173-4.363 4.051 4.051 0 0 0 .069-2.254 18.213 18.213 0 0 0-2.74-6.224 4.692 4.692 0 0 0-1.841-1.593c-.695-.322-1.409-.6-2.077-.968a14.55 14.55 0 0 0-3.332-1.161 3.248 3.248 0 0 0-1.91.047c-.5.167-1.034.226-1.544.363a18.734 18.734 0 0 0-4.822 1.692c-.452.273-.891.582-1.363.81a10.579 10.579 0 0 0-3.017 2.659m6.884-3c1.974-.223 3.906-.265 5.465 1.269a5.653 5.653 0 0 0 .56.435 10.787 10.787 0 0 1 4.009 6.433 5.012 5.012 0 0 1 .012 2.259c-.115.454-.179.921-.285 1.375a9.871 9.871 0 0 1-2.276 4.314 7.065 7.065 0 0 1-3.641 2.075 33.537 33.537 0 0 1-3.835.695 5.618 5.618 0 0 1-2.455-.209 3.88 3.88 0 0 1-2.828-2.171 5.64 5.64 0 0 1-1.24-3.926v-1.085a11.725 11.725 0 0 1 .5-4.127 21.732 21.732 0 0 0 .656-2.9 3.99 3.99 0 0 1 1.355-2.207 14.706 14.706 0 0 1 4-2.225" class="cls-3" transform="translate(16.491 -491.454)"/>
            <path id="Path_2789" d="M56.168 633.666a23.362 23.362 0 0 0 2.34-3.076 19.615 19.615 0 0 0 1.174-1.959 7.777 7.777 0 0 0 .714-3.4 1.375 1.375 0 0 0-.2-.66 27.274 27.274 0 0 0-2.9-4.6 4.4 4.4 0 0 1-.992-1.832 2.289 2.289 0 0 0-.673-1.2 24.465 24.465 0 0 0-3.219-2.465 1.436 1.436 0 0 0-.486-.2 11.788 11.788 0 0 0-3.685-.4c-.582-.064-1.161-.152-1.743-.184a2.142 2.142 0 0 0-.857.111 41.25 41.25 0 0 0-5.193 2.966 3.3 3.3 0 0 0-.656.587c-.464.454-.916.918-1.372 1.373a15.038 15.038 0 0 0-2.384 3.663 2.8 2.8 0 0 0-.287 1.178 17.781 17.781 0 0 0-.007 2.453 10.12 10.12 0 0 0 .458 2.579 18.426 18.426 0 0 0 1.512 3.155c.778 1.3 1.694 2.531 2.536 3.8a2.89 2.89 0 0 0 1.2 1.007 12.8 12.8 0 0 0 7.358 1.289c3.076-.408 5.325-2.116 7.366-4.181m-2.055-5.387a2.719 2.719 0 0 1-.287.82 10.542 10.542 0 0 1-4.228 4.122 2.988 2.988 0 0 1-1.36.309c-1.652.039-3.3.039-4.959.02a5.872 5.872 0 0 1-2.993-.963 10.192 10.192 0 0 0-.857-.616 3.33 3.33 0 0 1-1.716-2.124 8.263 8.263 0 0 1-.383-4.648c.243-1.019.361-2.067.506-3.106a4.139 4.139 0 0 1 .847-1.893 7.719 7.719 0 0 1 3.445-2.914 1.457 1.457 0 0 0 .454-.27 11.621 11.621 0 0 1 3.779-1.868 2.559 2.559 0 0 1 1.031-.133c.7.03 1.4.113 2.114.177.933.763 1.913 1.512 2.826 2.33a6.58 6.58 0 0 1 2.168 4.65 26.914 26.914 0 0 1-.385 6.106" class="cls-3" transform="translate(34.594 -478.993)"/>
            <path id="Path_2790" d="M147.23 600.341a4.187 4.187 0 0 0 2.615 2.214 9.031 9.031 0 0 0 2.784.5c1.245 0 2.487.02 3.727 0a14.852 14.852 0 0 0 5.023-.987 4.4 4.4 0 0 0 1.478-.94 36.173 36.173 0 0 0 2.5-3.182 1.443 1.443 0 0 0 .211-.481 17.238 17.238 0 0 0 .614-1.832 18.457 18.457 0 0 0 .042-3.646.775.775 0 0 0-.113-.329 17.107 17.107 0 0 0-.781-1.576 3.011 3.011 0 0 0-.825-.891 11.388 11.388 0 0 1-1.66-1.3 4.371 4.371 0 0 0-1.817-1.071 12.484 12.484 0 0 1-1.338-.466 6.179 6.179 0 0 0-2.76-.53 7.3 7.3 0 0 1-1.763-.135 2.23 2.23 0 0 0-2.114.594c-.614.548-1.228 1.1-1.866 1.621a16.271 16.271 0 0 0-4.277 4.623c-.007.7-.022 1.4 0 2.092 0 .137.16.295.28.4.145.118.457-.022.584-.253a3.49 3.49 0 0 0 .408-.773c.464-1.684 1.834-2.507 3.211-3.31.6-.354 1.255-.641 1.886-.95a2.99 2.99 0 0 1 3.452.43 5.981 5.981 0 0 1 2.121 5.976 3.614 3.614 0 0 1-2.728 2.929 16.03 16.03 0 0 1-2.428.442c-.876.123-1.755.189-2.634.295a3.054 3.054 0 0 1-1.395-.133 1.833 1.833 0 0 1-1.434-1.589 8.953 8.953 0 0 0-.378-1.527c-.182-.611-.594-.688-1.2-.241-.044.037-.086.081-.128.123-.007.29.012.584-.02.877a5.5 5.5 0 0 0 .724 3.027" class="cls-3" transform="translate(195.802 -519.818)"/>
            <path id="Path_2791" d="M63.572 635.93a.576.576 0 0 0-.265-.6.516.516 0 0 0-.633.137 5.883 5.883 0 0 0-.965 1.657 16.072 16.072 0 0 0-.562 3.982 6.306 6.306 0 0 0 3.167 5.178 1.221 1.221 0 0 0 .484.224c1.124.15 2.1.773 3.2.987a17.393 17.393 0 0 0 1.748.245c.7.064 1.424.047 2.124.145a4.183 4.183 0 0 0 2.413-.378 13.456 13.456 0 0 1 1.824-.653 10.361 10.361 0 0 0 1.3-.555c.695-.322 1.377-.67 2.077-.987a4.981 4.981 0 0 0 2-1.4A8 8 0 0 0 83 639.856c.071-.636.113-1.279.12-1.918.022-1.52.079-3.037 0-4.552a3.533 3.533 0 0 0-1.485-2.868 5.857 5.857 0 0 1-.9-.847 5.067 5.067 0 0 0-3.13-1.51 9.549 9.549 0 0 0-3.7.147c-1.206.292-2.416.548-3.624.818-.577.133-1.154.26-1.731.39a1.737 1.737 0 0 0-1.021.651 8.057 8.057 0 0 0-2.767 2.355c-.037.049.049.2.093.285.012.02.128.015.167-.012.975-.739 1.942-1.481 2.914-2.222a42.269 42.269 0 0 1 5.755-.97 13.92 13.92 0 0 1 2.477-.027 2.37 2.37 0 0 1 1.991 1.294 4.823 4.823 0 0 1 .66 3.042c-.624 3.99-.425 3.865-2.868 7a2.442 2.442 0 0 1-.339.4 9.979 9.979 0 0 1-1.245.97 9.2 9.2 0 0 1-2.63 1.021 14.863 14.863 0 0 1-4.766.142 3.752 3.752 0 0 1-2.944-2.026 12.98 12.98 0 0 1-.737-1.591 3.48 3.48 0 0 1-.015-2.9 4.446 4.446 0 0 0 .282-1.007" class="cls-3" transform="translate(71.613 -458.085)"/>
            <path id="Path_2792" d="M106.416 565.159c-1.589-.12-3.177-.214-4.77-.3a2.815 2.815 0 0 0-.7.061c-2.946.552-5.522 3.368-5.244 5.988v.177a7.5 7.5 0 0 0-.668 2.669 6.364 6.364 0 0 0 .545 3.206c.083.2.3.341.462.511a3.309 3.309 0 0 0 2.531 2.055q.538.361 1.063.719c.125.26.177.616.385.761.962.668 1.949 1.316 2.968 1.9a2.959 2.959 0 0 0 2.242.2 7.546 7.546 0 0 0 3.756-2.215c.712-.771 1.284-1.672 1.942-2.495a8.251 8.251 0 0 0 1.591-3.484 15.755 15.755 0 0 0 .093-1.915 9.526 9.526 0 0 0-1.79-5.932 2.45 2.45 0 0 0-1.851-1.228 11.026 11.026 0 0 1-1.355-.4 6.642 6.642 0 0 0-1.2-.277m.862 12.305a1.9 1.9 0 0 1-.449.737 6.03 6.03 0 0 1-1.643 1.309 2.88 2.88 0 0 1-2.551.216 3.394 3.394 0 0 1-.476-.228 2.023 2.023 0 0 0-2.175.1c-.351-.14-.695-.277-1.041-.417a9.966 9.966 0 0 1-2.487-2.146 18.086 18.086 0 0 1-.393-5.22c.191-.361.354-.744.579-1.083a2.653 2.653 0 0 1 2.325-1.353 8.836 8.836 0 0 1 7.972 4.341 4.964 4.964 0 0 1 .339 3.742" class="cls-3" transform="translate(120.88 -550.047)"/>
            <path id="Path_2793" d="M119.38 626.223a.172.172 0 0 0-.128.1 3.72 3.72 0 0 0-.167.847 14.8 14.8 0 0 1-.439 3.292c-.27 1.252-.442 2.526-.656 3.791.12.118.236.241.354.361a7.437 7.437 0 0 0 .771-1.367c.464-1.507.877-3.032 1.267-4.564a2.58 2.58 0 0 0-.678-2.428c-.054-.059-.219-.037-.324-.03" class="cls-3" transform="translate(154.337 -460.755)"/>
            <path id="Path_2794" d="M93.427 609.141a1.276 1.276 0 0 0 .071 1.483 9.9 9.9 0 0 0 6.72 4.142c.408.054.827.071 1.228.16a14.963 14.963 0 0 0 3.7.155 3.129 3.129 0 0 0 1.041-.2 10.438 10.438 0 0 0 5.512-4.451c.295-.5.493-1.051.741-1.579a5.672 5.672 0 0 0 .66-2.166 2.215 2.215 0 0 1 .209-.832 19.9 19.9 0 0 0 1.348-5.067 7.382 7.382 0 0 0 .037-1.92 2.989 2.989 0 0 0-.312-1.174 12.9 12.9 0 0 0-2.934-3.692 25.872 25.872 0 0 0-2.448-1.726c-.724-.5-1.451-1-2.193-1.471a3.348 3.348 0 0 0-1.093-.543 24.43 24.43 0 0 0-3.1-.587 6.175 6.175 0 0 0-4.029.938 16.964 16.964 0 0 1-1.505.913 4.062 4.062 0 0 0-1.436 1.277 11.933 11.933 0 0 1-.714 1c-1.67 1.915-2.107 4.257-2.394 6.656-.022.2.042.462.371.459l.5-.9c.265-.653.525-1.3.8-1.949A9.986 9.986 0 0 1 97.9 593.9a2.39 2.39 0 0 1 2.507-.268c.7.314 1.417.584 2.119.891a9.375 9.375 0 0 1 5.311 6.42 6.1 6.1 0 0 1-.086 3.791 23.17 23.17 0 0 0-.582 2.379 9.13 9.13 0 0 1-.97 2.244 4.273 4.273 0 0 1-3.275 2.138 9.256 9.256 0 0 1-4.211-.25 5.808 5.808 0 0 1-2.99-2.357 5.775 5.775 0 0 0-.452-.744 3.16 3.16 0 0 0-.737-.449 5.131 5.131 0 0 0-.611-1.78c-.236-.459-.469-.923-.67-1.4a2.9 2.9 0 0 1-.2-2.013c-.187.135-.476.228-.543.4a3.643 3.643 0 0 0 .2 3.364 8.741 8.741 0 0 0 .606.859 1.228 1.228 0 0 1 .246 1.144 7.931 7.931 0 0 0-.128.867" class="cls-3" transform="translate(116.789 -513.956)"/>
            <path id="Path_2795" d="M132.6 642.824a7.347 7.347 0 0 0-1.38 2.2q-.818.674-1.62 1.355a5.262 5.262 0 0 1-.94.791c-1.775.847-3.577 1.576-5.588.761a2.991 2.991 0 0 0-.7-.132 6.91 6.91 0 0 1-3.16-1.5 21 21 0 0 1-3.241-3.229 7.127 7.127 0 0 1-1.871-5.17c.037-.523.02-1.053.01-1.579a4.935 4.935 0 0 1 .521-2.2 23.259 23.259 0 0 1 3.405-5.119A8.445 8.445 0 0 1 123.1 626c.641-.118 1.291-.2 1.915-.376a7.017 7.017 0 0 1 3.5.1 10.236 10.236 0 0 1 5.539 2.936 8.919 8.919 0 0 0 1.068.921.342.342 0 0 0 .324.022c.106-.11.238-.292.211-.42a4.966 4.966 0 0 0-1.38-2.4c-.921-1-2.045-1.775-3.049-2.679a9.358 9.358 0 0 0-5.642-2.281 22.842 22.842 0 0 0-3.548.017 9.722 9.722 0 0 0-5.7 2.168 19.178 19.178 0 0 0-4.056 4.375 5.2 5.2 0 0 1-.985 1.233 12.2 12.2 0 0 0-2.725 3.852c-.9 1.672-.808 3.511-1.093 5.291a2.572 2.572 0 0 0 .1.69 15.687 15.687 0 0 0 1.179 3.85 7.909 7.909 0 0 0 2.711 4.017 1.014 1.014 0 0 1 .12.128 14.155 14.155 0 0 0 6.681 4.12 10.67 10.67 0 0 0 3.143.457 3.928 3.928 0 0 0 2.028-.511 16.5 16.5 0 0 1 3.727-1.621 3.234 3.234 0 0 0 1.237-.658 25.352 25.352 0 0 0 1.967-2.013c.425-.484.773-1.036 1.154-1.554a4.3 4.3 0 0 0 1.1-2.067c.228-.481.454-.958.685-1.434.113-.353.223-.7.336-1.061-.118-.118-.233-.241-.351-.359l-.349 1.075a1.59 1.59 0 0 0-.346 1.012" class="cls-3" transform="translate(139.037 -467.241)"/>
        </g>
    </g>
</svg>
